<svg width="16" height="16" viewBox="0 0 16 16" fill="none" xmlns="http://www.w3.org/2000/svg">
<path fill-rule="evenodd" clip-rule="evenodd" d="M8.33614 2.66659C5.5765 2.66659 3.33937 4.90371 3.33937 7.66335C3.33937 8.4621 3.5263 9.21528 3.85818 9.88329C3.93659 10.0411 3.94932 10.2236 3.89359 10.3907L3.04769 12.9284L5.61095 12.1018C5.77669 12.0484 5.95676 12.0619 6.11265 12.1395C6.78154 12.4725 7.53598 12.6601 8.33614 12.6601C11.0958 12.6601 13.3329 10.423 13.3329 7.66335C13.3329 4.90371 11.0958 2.66659 8.33614 2.66659ZM2.00604 7.66335C2.00604 4.16734 4.84012 1.33325 8.33614 1.33325C11.8322 1.33325 14.6662 4.16734 14.6662 7.66335C14.6662 11.1594 11.8322 13.9935 8.33614 13.9935C7.42378 13.9935 6.55503 13.8 5.76996 13.4515L2.20331 14.6016C1.9641 14.6787 1.70184 14.6148 1.525 14.4362C1.34815 14.2576 1.28678 13.9947 1.36626 13.7563L2.54449 10.2217C2.19817 9.43866 2.00604 8.57267 2.00604 7.66335Z" fill="#6C7080"/>
</svg>
