<svg width="16" height="16" viewBox="0 0 16 16" fill="none" xmlns="http://www.w3.org/2000/svg">
<path fill-rule="evenodd" clip-rule="evenodd" d="M7.0105 3.57507C5.79755 2.36213 3.83098 2.36213 2.61804 3.57507C1.4051 4.78802 1.4051 6.75459 2.61804 7.96753L3.13784 8.48733C3.14634 8.49583 3.15459 8.50453 3.16257 8.51343L8.00171 13.3526L12.8406 8.51364C12.8487 8.5047 12.857 8.49593 12.8656 8.48733L13.3854 7.96753C14.5983 6.75459 14.5983 4.78802 13.3854 3.57507C12.1724 2.36213 10.2059 2.36213 8.99292 3.57507L8.47311 4.09488C8.21276 4.35523 7.79065 4.35523 7.5303 4.09488L7.0105 3.57507ZM13.834 9.40452C13.826 9.41346 13.8177 9.42223 13.8091 9.43083L8.4738 14.7661C8.34873 14.8912 8.1791 14.9614 8.00224 14.9614C8.00206 14.9614 8.00241 14.9614 8.00224 14.9614C8.00206 14.9614 8.00135 14.9614 8.00118 14.9614C7.82431 14.9614 7.65468 14.8912 7.52962 14.7661L2.19435 9.43083C2.18575 9.42223 2.17744 9.41346 2.16941 9.40452L1.67523 8.91034C-0.0584094 7.1767 -0.058412 4.36591 1.67523 2.63226C3.40887 0.898621 6.21966 0.898621 7.95331 2.63226L8.00171 2.68066L8.05011 2.63226C9.78375 0.89862 12.5945 0.898621 14.3282 2.63226C16.0618 4.36591 16.0618 7.1767 14.3282 8.91034L13.834 9.40452Z" fill="#6C7080"/>
</svg>
