<svg width="66" height="15" viewBox="0 0 66 15" fill="none" xmlns="http://www.w3.org/2000/svg">
<path d="M57.6599 3.0876C57.4321 2.8598 57.0627 2.8598 56.8349 3.0876C56.6071 3.31541 56.6071 3.68475 56.8349 3.91256L59.9224 7.00008L56.8349 10.0876C56.6071 10.3154 56.6071 10.6848 56.8349 10.9126C57.0627 11.1404 57.4321 11.1404 57.6599 10.9126L61.1599 7.41256C61.3877 7.18475 61.3877 6.81541 61.1599 6.5876L57.6599 3.0876Z" fill="#1D1B20" fill-opacity="0.5"/>
<path d="M11.6621 10.8936V11.9736H0.451172V10.8936H5.38672V8.06348H1.73633V2.23926H10.3223V8.06348H6.67188V10.8936H11.6621ZM2.99414 7.03809H9.05078V3.27832H2.99414V7.03809ZM22.3672 5.7666V6.79199H14.0547V1.95215H22.2168V3.00488H15.3672V5.7666H22.3672ZM12.5371 9.33496V8.28223H23.748V9.33496H18.7441V13.4775H17.4727V9.33496H12.5371ZM35.8613 10.9072V11.9873H24.6504V10.9072H29.5859V8.3916H25.9355V2.08887H27.2344V4.19434H33.25V2.08887H34.5352V8.3916H30.8711V10.9072H35.8613ZM27.2344 7.33887H33.25V5.24707H27.2344V7.33887ZM46.9355 1.25488V13.5049H45.623V1.25488H46.9355ZM36.873 10.2236C40.127 8.67188 41.7197 6.46387 41.9727 3.60645H37.4609V2.56738H43.2852C43.2852 6.15625 41.7607 9.25977 37.5566 11.2764L36.873 10.2236Z" fill="#1D1B20" fill-opacity="0.5"/>
</svg>
