<svg width="20" height="20" viewBox="0 0 20 20" fill="none" xmlns="http://www.w3.org/2000/svg">
<rect width="20" height="20" rx="4" fill="#6138F8"/>
<path d="M11.391 4.45678C11.3761 4.58974 11.3611 4.70794 11.3312 4.82613C13.7094 4.87045 15.7585 6.00806 16.5812 8.93333H13.5598C12.8419 7.55934 11.4957 6.86496 9.92521 7.02747C8.5641 8.22418 6.48504 9.0072 4.66026 8.97766C3.77778 8.96288 3.34402 8.35714 3.35897 7.76618C3.37393 7.16044 3.83761 6.56947 4.73504 6.53993C6.21581 6.48083 7.99573 5.41709 8.33974 4.20562C8.59402 3.31917 9.29701 2.93504 10.1047 3.00891C10.8974 3.08278 11.4658 3.49646 11.391 4.45678ZM4.16667 9.93797H8.5641V9.27314C8.5641 8.31282 9.28205 7.95824 10.0748 7.95824C10.8526 7.95824 11.5855 8.32759 11.5855 9.27314V9.93797H15.8333C16.6859 9.93797 17 10.5585 17 11.1051C17 11.6665 16.6709 12.2575 15.8333 12.2575H4.16667C3.32906 12.2575 3 11.6665 3 11.1051C3 10.5585 3.3141 9.93797 4.16667 9.93797ZM5.88675 17C4.19658 17 3.74786 16.4534 3.74786 14.8578V14.0747C3.74786 13.0701 4.46581 12.686 5.30342 12.686C6.14103 12.686 6.8141 13.0849 6.8141 14.0747V14.4441C6.8141 14.6952 6.85897 14.7396 7.14316 14.7396H15.2799C16.1923 14.7396 16.5363 15.2714 16.5363 15.8624C16.5363 16.4681 16.1774 17 15.2799 17H5.88675Z" fill="white"/>
</svg>
