<svg width="82" height="82" viewBox="0 0 82 82" fill="none" xmlns="http://www.w3.org/2000/svg">
<g id="Frame">
<path id="Vector" d="M41.0007 75.1668C22.1309 75.1668 6.83398 59.8697 6.83398 41.0002C6.83398 22.1304 22.1309 6.8335 41.0007 6.8335C59.8702 6.8335 75.1673 22.1304 75.1673 41.0002C75.1673 59.8697 59.8702 75.1668 41.0007 75.1668ZM41.0007 68.3335C56.0965 68.3335 68.334 56.096 68.334 41.0002C68.334 25.9044 56.0965 13.6668 41.0007 13.6668C25.9049 13.6668 13.6673 25.9044 13.6673 41.0002C13.6673 56.096 25.9049 68.3335 41.0007 68.3335ZM41.1284 51.1313C39.1758 53.0839 36.01 53.0839 34.0573 51.1313L25.5132 42.5872C24.1789 41.2529 24.1789 39.0896 25.5132 37.7553C26.8475 36.4209 29.0109 36.4209 30.3453 37.7553L37.4514 44.8617C37.5296 44.9398 37.6562 44.9398 37.7343 44.8617L54.5047 28.0914C55.839 26.7571 58.0023 26.7571 59.3365 28.0914C60.6708 29.4257 60.6708 31.589 59.3365 32.9233L41.1284 51.1313Z" fill="#09EE65"/>
</g>
</svg>
