<svg width="24" height="22" viewBox="0 0 24 22" fill="none" xmlns="http://www.w3.org/2000/svg">
<path id="Shape" fill-rule="evenodd" clip-rule="evenodd" d="M10.5138 4.36261C8.69438 2.54319 5.74452 2.54319 3.92511 4.36261C2.10569 6.18202 2.10569 9.13188 3.92511 10.9513L4.70481 11.731C4.71756 11.7437 4.72992 11.7568 4.7419 11.7701L12.0006 19.0289L19.259 11.7705C19.271 11.7571 19.2835 11.7439 19.2964 11.731L20.0761 10.9513C21.8955 9.13188 21.8955 6.18202 20.0761 4.36261C18.2567 2.54319 15.3068 2.54319 13.4874 4.36261L12.7077 5.14232C12.3172 5.53284 11.684 5.53284 11.2935 5.14232L10.5138 4.36261ZM20.749 13.1068C20.737 13.1202 20.7245 13.1333 20.7116 13.1462L12.7087 21.1491C12.5211 21.3367 12.2667 21.4421 12.0014 21.442C12.0011 21.442 12.0017 21.442 12.0014 21.442C12.0011 21.442 12.0001 21.442 11.9998 21.442C11.7345 21.4421 11.4801 21.3367 11.2925 21.1491L3.28957 13.1462C3.27668 13.1333 3.2642 13.1202 3.25216 13.1068L2.5109 12.3655C-0.0895673 9.76505 -0.0895711 5.54886 2.51089 2.9484C5.11136 0.347931 9.32754 0.347931 11.928 2.9484L12.0006 3.021L12.0732 2.9484C14.6737 0.347931 18.8899 0.347931 21.4903 2.9484C24.0908 5.54886 24.0908 9.76505 21.4903 12.3655L20.749 13.1068Z" fill="#208DF1"/>
</svg>
