<svg xmlns="http://www.w3.org/2000/svg" width="24" height="24" viewBox="0 0 24 24" fill="none">
<path d="M4 20V11C4 6.58172 7.58172 3 12 3C16.4183 3 20 6.58172 20 11V20C20.5523 20 21 20.4477 21 21C21 21.5523 20.5523 22 20 22H4C3.44772 22 3 21.5523 3 21C3 20.4477 3.44771 20 4 20ZM6 20H18V11C18 7.6863 15.3137 5 12 5C8.68629 5 6 7.6863 6 11V20ZM7.99999 11C7.44771 11 6.98956 10.5478 7.09872 10.0064C7.49478 8.04211 9.0421 6.49478 11.0064 6.09873C11.5478 5.98957 12 6.44772 12 7C12 7.55228 11.54 7.98368 11.0181 8.16436C10.1511 8.46452 9.46452 9.15109 9.16436 10.0181C8.98368 10.54 8.55228 11 7.99999 11Z" fill="#3B3B4C"/>
</svg>