<svg xmlns="http://www.w3.org/2000/svg" width="18" height="18" viewBox="0 0 18 18" fill="none">
<path fill-rule="evenodd" clip-rule="evenodd" d="M5.25 1.5C4.65326 1.5 4.08097 1.73705 3.65901 2.15901C3.23705 2.58097 3 3.15326 3 3.75V15.75C3 16.0309 3.15701 16.2883 3.40681 16.4169C3.65662 16.5454 3.95732 16.5236 4.18593 16.3603L9 12.9217L13.8141 16.3603C14.0427 16.5236 14.3434 16.5454 14.5932 16.4169C14.843 16.2883 15 16.0309 15 15.75V3.75C15 3.15326 14.7629 2.58097 14.341 2.15901C13.919 1.73705 13.3467 1.5 12.75 1.5H5.25ZM4.71967 3.21967C4.86032 3.07902 5.05109 3 5.25 3H12.75C12.9489 3 13.1397 3.07902 13.2803 3.21967C13.421 3.36032 13.5 3.55109 13.5 3.75V14.2926L9.43593 11.3897C9.17516 11.2034 8.82484 11.2034 8.56407 11.3897L4.5 14.2926V3.75C4.5 3.55109 4.57902 3.36032 4.71967 3.21967Z" fill="#3B3B4C"/>
</svg>