<svg width="24" height="24" viewBox="0 0 24 24" fill="none" xmlns="http://www.w3.org/2000/svg">
<g id="ic-eye">
<g id="Shape">
<path fill-rule="evenodd" clip-rule="evenodd" d="M11.9998 8C9.79069 8 7.99982 9.79086 7.99982 12C7.99982 14.2091 9.79069 16 11.9998 16C14.209 16 15.9998 14.2091 15.9998 12C15.9998 9.79086 14.209 8 11.9998 8ZM9.99982 12C9.99982 10.8954 10.8953 10 11.9998 10C13.1044 10 13.9998 10.8954 13.9998 12C13.9998 13.1046 13.1044 14 11.9998 14C10.8953 14 9.99982 13.1046 9.99982 12Z" fill="#6C7080"/>
<path fill-rule="evenodd" clip-rule="evenodd" d="M23.8939 11.5521C23.8941 11.5525 23.8943 11.5528 22.9998 12C23.8943 12.4472 23.8941 12.4475 23.8939 12.4479L23.8923 12.4511L23.8888 12.458L23.8775 12.4802C23.8679 12.4987 23.8545 12.5247 23.8371 12.5576C23.8023 12.6233 23.7518 12.7168 23.6859 12.834C23.554 13.0684 23.36 13.3985 23.1055 13.7925C22.5978 14.5787 21.843 15.6294 20.8544 16.6839C18.8953 18.7736 15.8993 21 11.9998 21C8.10032 21 5.1043 18.7736 3.14529 16.6839C2.15666 15.6294 1.40189 14.5787 0.89416 13.7925C0.639674 13.3985 0.445616 13.0684 0.313795 12.834C0.247847 12.7168 0.197364 12.6233 0.162577 12.5576C0.145181 12.5247 0.131699 12.4987 0.122162 12.4802L0.110814 12.458L0.107363 12.4511L0.106194 12.4488C0.10601 12.4484 0.105397 12.4472 0.999824 12C0.105397 11.5528 0.105565 11.5525 0.105749 11.5521L0.107363 11.5489L0.110814 11.542L0.122162 11.5198C0.131699 11.5013 0.145181 11.4753 0.162577 11.4424C0.197364 11.3767 0.247847 11.2832 0.313795 11.166C0.445616 10.9316 0.639674 10.6015 0.89416 10.2075C1.40189 9.42131 2.15666 8.3706 3.14529 7.31606C5.1043 5.22644 8.10032 3 11.9998 3C15.8993 3 18.8953 5.22644 20.8544 7.31606C21.843 8.3706 22.5978 9.42131 23.1055 10.2075C23.36 10.6015 23.554 10.9316 23.6859 11.166C23.7518 11.2832 23.8023 11.3767 23.8371 11.4424C23.8545 11.4753 23.8679 11.5013 23.8775 11.5198L23.8888 11.542L23.8923 11.5489L23.8939 11.5521ZM2.57424 12.7075C2.39475 12.4296 2.24986 12.1889 2.14057 12C2.24986 11.8111 2.39475 11.5704 2.57424 11.2925C3.03526 10.5787 3.71799 9.6294 4.60436 8.68394C6.39534 6.77356 8.89933 5 11.9998 5C15.1003 5 17.6043 6.77356 19.3953 8.68394C20.2817 9.6294 20.9644 10.5787 21.4254 11.2925C21.6049 11.5704 21.7498 11.8111 21.8591 12C21.7498 12.1889 21.6049 12.4296 21.4254 12.7075C20.9644 13.4213 20.2817 14.3706 19.3953 15.3161C17.6043 17.2264 15.1003 19 11.9998 19C8.89933 19 6.39534 17.2264 4.60436 15.3161C3.71799 14.3706 3.03526 13.4213 2.57424 12.7075Z" fill="#6C7080"/>
<path d="M22.9998 12L23.8939 11.5521C24.0347 11.8336 24.0347 12.1664 23.8939 12.4479L22.9998 12Z" fill="#6C7080"/>
<path d="M0.105749 11.5521L0.999824 12L0.105397 12.4472C-0.0353668 12.1657 -0.0350147 11.8336 0.105749 11.5521Z" fill="#6C7080"/>
</g>
</g>
</svg>
