<svg width="24" height="24" viewBox="0 0 24 24" fill="none" xmlns="http://www.w3.org/2000/svg">
<g id="ic-heart">
<path id="Shape" fill-rule="evenodd" clip-rule="evenodd" d="M10.5138 5.36261C8.69438 3.54319 5.74452 3.54319 3.92511 5.36261C2.10569 7.18202 2.10569 10.1319 3.92511 11.9513L4.70481 12.731C4.71756 12.7437 4.72992 12.7568 4.7419 12.7701L12.0006 20.0289L19.259 12.7705C19.271 12.7571 19.2835 12.7439 19.2964 12.731L20.0761 11.9513C21.8955 10.1319 21.8955 7.18202 20.0761 5.36261C18.2567 3.54319 15.3068 3.54319 13.4874 5.36261L12.7077 6.14232C12.3172 6.53284 11.684 6.53284 11.2935 6.14232L10.5138 5.36261ZM20.749 14.1068C20.737 14.1202 20.7245 14.1333 20.7116 14.1462L12.7087 22.1491C12.5211 22.3367 12.2667 22.4421 12.0014 22.442C12.0011 22.442 12.0017 22.442 12.0014 22.442C12.0011 22.442 12.0001 22.442 11.9998 22.442C11.7345 22.4421 11.4801 22.3367 11.2925 22.1491L3.28957 14.1462C3.27668 14.1333 3.2642 14.1202 3.25216 14.1068L2.5109 13.3655C-0.0895673 10.765 -0.0895711 6.54886 2.51089 3.9484C5.11136 1.34793 9.32754 1.34793 11.928 3.9484L12.0006 4.021L12.0732 3.9484C14.6737 1.34793 18.8899 1.34793 21.4903 3.9484C24.0908 6.54886 24.0908 10.765 21.4903 13.3655L20.749 14.1068Z" fill="#6C7080"/>
</g>
</svg>
