<svg xmlns="http://www.w3.org/2000/svg" width="28" height="28" viewBox="0 0 28 28" fill="none">
<path fill-rule="evenodd" clip-rule="evenodd" d="M7.00065 9.91658C7.00065 8.30575 8.30649 6.99992 9.91732 6.99992C11.5281 6.99992 12.834 8.30575 12.834 9.91658C12.834 11.5274 11.5281 12.8333 9.91732 12.8333C8.30649 12.8333 7.00065 11.5274 7.00065 9.91658ZM9.91732 9.33325C9.59515 9.33325 9.33398 9.59442 9.33398 9.91658C9.33398 10.2388 9.59515 10.4999 9.91732 10.4999C10.2395 10.4999 10.5007 10.2388 10.5007 9.91658C10.5007 9.59442 10.2395 9.33325 9.91732 9.33325Z" fill="#C7CDDA"/>
<path fill-rule="evenodd" clip-rule="evenodd" d="M2.33398 5.83325C2.33398 3.90026 3.90099 2.33325 5.83398 2.33325H22.1673C24.1003 2.33325 25.6673 3.90026 25.6673 5.83325V22.1666C25.6673 24.0996 24.1003 25.6666 22.1673 25.6666H5.83398C3.90099 25.6666 2.33398 24.0996 2.33398 22.1666V5.83325ZM5.83398 4.66659C5.18965 4.66659 4.66732 5.18892 4.66732 5.83325V22.1666C4.66732 22.6669 4.98223 23.0936 5.42465 23.2594L17.8424 10.8416C18.2981 10.386 19.0368 10.386 19.4924 10.8416L23.334 14.6832V5.83325C23.334 5.18892 22.8116 4.66659 22.1673 4.66659H5.83398ZM23.334 17.9831L18.6674 13.3165L8.65066 23.3333H22.1673C22.8116 23.3333 23.334 22.8109 23.334 22.1666V17.9831Z" fill="#C7CDDA"/>
</svg>