<svg width="60" height="60" viewBox="0 0 60 60" fill="none" xmlns="http://www.w3.org/2000/svg">
<path fill-rule="evenodd" clip-rule="evenodd" d="M15 21.25C15 17.7982 17.7982 15 21.25 15C24.7018 15 27.5 17.7982 27.5 21.25C27.5 24.7018 24.7018 27.5 21.25 27.5C17.7982 27.5 15 24.7018 15 21.25ZM21.25 20C20.5596 20 20 20.5596 20 21.25C20 21.9404 20.5596 22.5 21.25 22.5C21.9404 22.5 22.5 21.9404 22.5 21.25C22.5 20.5596 21.9404 20 21.25 20Z" fill="white"/>
<path fill-rule="evenodd" clip-rule="evenodd" d="M5 12.5C5 8.35786 8.35786 5 12.5 5H47.5C51.6421 5 55 8.35786 55 12.5V47.5C55 51.6421 51.6421 55 47.5 55H12.5C8.35786 55 5 51.6421 5 47.5V12.5ZM12.5 10C11.1193 10 10 11.1193 10 12.5V47.5C10 48.5721 10.6748 49.4865 11.6229 49.8418L38.2324 23.2322C39.2087 22.2559 40.7916 22.2559 41.768 23.2322L50 31.4643V12.5C50 11.1193 48.8807 10 47.5 10H12.5ZM50 38.5353L40.0002 28.5355L18.5357 50H47.5C48.8807 50 50 48.8807 50 47.5V38.5353Z" fill="white"/>
</svg>
