<svg width="20" height="23" viewBox="0 0 20 23" fill="none" xmlns="http://www.w3.org/2000/svg">
<path fill-rule="evenodd" clip-rule="evenodd" d="M10 0.00195312C9.47422 0.00195312 8.95768 0.140138 8.50214 0.402641L5.30633 2.22882C5.09619 2.27039 4.90017 2.37894 4.75258 2.54525L1.50386 4.40166L1.5 4.40388C1.13 4.6175 0.810899 4.90709 0.563037 5.25232C0.502707 5.31267 0.44917 5.3818 0.404412 5.45918C0.365863 5.52582 0.335862 5.59505 0.31407 5.66562C0.108342 6.07911 0.000475907 6.53535 0 6.99888V15.0009C0.000540137 15.527 0.139415 16.0437 0.402693 16.4992C0.665971 16.9547 1.04439 17.3329 1.5 17.5959L1.50386 17.5981L8.5 21.5959L8.50185 21.597C8.81905 21.7798 9.16584 21.9024 9.52474 21.96C9.66611 22.0365 9.82797 22.0799 10 22.0799C10.172 22.0799 10.3339 22.0365 10.4753 21.96C10.8342 21.9024 11.181 21.7798 11.4982 21.597L11.5 21.5959L18.4961 17.5981L18.5 17.5959C18.9556 17.3329 19.334 16.9547 19.5973 16.4992C19.8606 16.0437 19.9995 15.527 20 15.0009V6.99888C19.9995 6.53542 19.8917 6.07926 19.686 5.66582C19.6642 5.59518 19.6342 5.52588 19.5956 5.45918C19.5508 5.38175 19.4973 5.31257 19.4369 5.25218C19.189 4.90701 18.87 4.61747 18.5 4.40387L11.5 0.403877L11.4979 0.402673C11.0424 0.140149 10.5258 0.00195312 10 0.00195312ZM11 19.5782L17.5 15.8639L17.5016 15.863C17.6527 15.7753 17.7783 15.6496 17.8658 15.4983C17.9535 15.3465 17.9998 15.1742 18 14.9989V7.53745L11 11.5867V19.5782ZM9 11.5867L2 7.53743V14.9993C2.00026 15.1745 2.04654 15.3466 2.13423 15.4983C2.22169 15.6496 2.34726 15.7753 2.49842 15.863L2.5 15.8639L9 19.5782V11.5867ZM10.5039 2.13815L16.961 5.82794L14.5052 7.24855L7.5609 3.24399L9.49614 2.13815L9.5 2.13593C9.65202 2.04816 9.82446 2.00195 10 2.00195C10.1755 2.00195 10.348 2.04816 10.5 2.13593L10.5039 2.13815ZM10 9.85464L12.5065 8.4047L5.54999 4.39308L3.03899 5.82793L10 9.85464Z" fill="#6138F8"/>
</svg>
