<svg width="24" height="25" viewBox="0 0 24 25" fill="none" xmlns="http://www.w3.org/2000/svg">
<path fill-rule="evenodd" clip-rule="evenodd" d="M12 1.50195C11.4742 1.50195 10.9577 1.64014 10.5021 1.90264L7.30633 3.72882C7.09619 3.77039 6.90017 3.87894 6.75258 4.04525L3.50386 5.90166L3.5 5.90388C3.13 6.1175 2.8109 6.40709 2.56304 6.75232C2.50271 6.81267 2.44917 6.8818 2.40441 6.95918C2.36586 7.02582 2.33586 7.09505 2.31407 7.16562C2.10834 7.57911 2.00048 8.03535 2 8.49888V16.5009C2.00054 17.027 2.13941 17.5437 2.40269 17.9992C2.66597 18.4547 3.04439 18.8329 3.5 19.0959L3.50386 19.0981L10.5 23.0959L10.5019 23.097C10.8191 23.2798 11.1658 23.4024 11.5247 23.46C11.6661 23.5365 11.828 23.5799 12 23.5799C12.172 23.5799 12.3339 23.5365 12.4753 23.46C12.8342 23.4024 13.181 23.2798 13.4982 23.097L13.5 23.0959L20.4961 19.0981L20.5 19.0959C20.9556 18.8329 21.334 18.4547 21.5973 17.9992C21.8606 17.5437 21.9995 17.027 22 16.5009V8.49888C21.9995 8.03542 21.8917 7.57926 21.686 7.16582C21.6642 7.09518 21.6342 7.02588 21.5956 6.95918C21.5508 6.88175 21.4973 6.81257 21.4369 6.75218C21.189 6.40701 20.87 6.11747 20.5 5.90387L13.5 1.90388L13.4979 1.90267C13.0424 1.64015 12.5258 1.50195 12 1.50195ZM13 21.0782L19.5 17.3639L19.5016 17.363C19.6527 17.2753 19.7783 17.1496 19.8658 16.9983C19.9535 16.8465 19.9998 16.6742 20 16.4989V9.03745L13 13.0867V21.0782ZM11 13.0867L4 9.03743V16.4993C4.00026 16.6745 4.04654 16.8466 4.13423 16.9983C4.22169 17.1496 4.34726 17.2753 4.49842 17.363L4.5 17.3639L11 21.0782V13.0867ZM12.5039 3.63815L18.961 7.32794L16.5052 8.74855L9.5609 4.74399L11.4961 3.63815L11.5 3.63593C11.652 3.54816 11.8245 3.50195 12 3.50195C12.1755 3.50195 12.348 3.54816 12.5 3.63593L12.5039 3.63815ZM12 11.3546L14.5065 9.9047L7.54999 5.89308L5.03899 7.32793L12 11.3546Z" fill="#A5A8B8"/>
</svg>
