<svg width="100" height="18" viewBox="0 0 100 18" fill="none" xmlns="http://www.w3.org/2000/svg">
<path d="M9.23359 0.714489C10.2351 0.714489 10.5827 1.50843 10.5827 2.18672C10.5827 2.83063 10.216 3.62145 9.23359 3.62145H4.33771C3.97092 3.62145 3.79869 3.75273 3.79869 4.07468V6.17207C3.79869 6.53153 3.97092 6.64406 4.33771 6.64406H9.96717C10.9687 6.64406 11.3355 7.41925 11.3355 8.06003C11.3355 8.74145 10.9687 9.51351 9.96717 9.51351H2.73659C0.596436 9.51976 0 8.83834 0 6.89412V3.34325C0 1.3959 0.596436 0.714489 2.73659 0.714489H9.23359ZM4.60563 10.5575H12.7612C15.4021 10.5575 16.7512 12.1829 16.7512 14.2615C16.7512 16.3402 15.4021 17.9656 12.7612 17.9656H4.60563C1.92646 17.9656 0.615573 16.3027 0.615573 14.2615C0.615573 12.2204 1.92646 10.5575 4.60563 10.5575ZM5.62627 15.318H11.7373C12.5857 15.318 12.8377 14.7335 12.8377 14.2615C12.8377 13.7896 12.5857 13.205 11.7373 13.205H5.62627C4.77786 13.205 4.52589 13.7896 4.52589 14.2615C4.52589 14.7335 4.77786 15.318 5.62627 15.318ZM12.6272 2.03669C12.6272 0.808262 13.5139 0.16748 14.5345 0.16748C15.5552 0.16748 16.4418 0.830142 16.4418 2.03669V3.58706H17.0383C18.2152 3.58706 18.5597 4.45603 18.5597 5.21246C18.5597 5.96889 18.1929 6.83786 17.0383 6.83786H16.4418V10.1074H12.624V2.03669H12.6272Z" fill="#1D1B20"/>
<path d="M26.4863 3.79336V4.15283C26.4863 4.45603 26.4672 4.7561 26.4289 5.04054C29.3983 5.13432 30.8049 6.64718 30.7475 9.96987H27.1434C27.2582 8.49763 26.5278 7.66618 25.37 7.7412C24.2505 9.27282 22.4197 10.1043 20.6272 10.1605C19.6831 10.1981 18.8921 9.63229 18.8539 8.78208C18.8156 7.89436 19.2589 7.34735 20.0308 7.21295C21.785 6.9285 22.8056 5.74071 22.8056 4.15283V3.79336H20.3944C19.4886 3.79336 18.9878 2.96191 18.9878 2.2805C18.9878 1.59908 19.412 0.748872 20.3944 0.748872H29.2038C30.1861 0.748872 30.6103 1.59908 30.6103 2.2805C30.6103 2.96191 30.1096 3.79336 29.2038 3.79336H26.4863ZM23.8454 17.9624C21.1662 17.9624 19.8936 16.4308 19.8936 14.3928C19.8936 12.3548 21.1662 10.7857 23.8454 10.7857H32.0775C34.7184 10.7857 36.0293 12.3361 36.0293 14.3928C36.0293 16.4496 34.7184 17.9624 32.0775 17.9624H23.8454ZM31.0537 15.3368C31.9021 15.3368 32.1126 14.8085 32.1126 14.3928C32.1126 13.9771 31.8989 13.4864 31.0537 13.4864H24.8661C24.0176 13.4864 23.8071 13.9771 23.8071 14.3928C23.8071 14.8085 24.0208 15.3368 24.8661 15.3368H31.0537ZM31.9021 2.03669C31.9021 0.808262 32.7888 0.16748 33.8094 0.16748C34.83 0.16748 35.7167 0.830142 35.7167 2.03669V3.50892H36.3132C37.4901 3.50892 37.8345 4.37788 37.8345 5.13432C37.8345 5.89075 37.4678 6.75971 36.3132 6.75971H35.7167V10.2168H31.8989V2.03669H31.9021Z" fill="#1D1B20"/>
<path d="M50.5684 8.87591V8.02571C50.5684 6.79728 51.4934 6.34405 52.514 6.34405C53.5347 6.34405 54.4596 6.81604 54.4596 8.02571V8.87591H59.936C61.0364 8.87591 61.4382 9.66986 61.4382 10.3669C61.4382 11.0639 61.014 11.8391 59.936 11.8391H44.9007C43.8226 11.8391 43.3984 11.0827 43.3984 10.3669C43.3984 9.6511 43.8035 8.87591 44.9007 8.87591H50.5684ZM54.1343 2.33994C57.1994 2.39621 59.8403 3.84969 60.8992 7.59122H57.0048C56.0799 5.83455 54.3448 4.94683 52.3195 5.15313C50.5652 6.68475 47.8861 7.685 45.5354 7.64749C44.3967 7.62873 43.8386 6.85354 43.8577 6.09711C43.8769 5.32192 44.4733 4.56549 45.6311 4.52798C47.5384 4.45296 49.8348 3.09325 50.2782 1.54288C50.6067 0.408224 51.5125 -0.0825205 52.5523 0.0112524C53.5729 0.105025 54.3065 0.633279 54.2108 1.8617C54.1917 2.03049 54.1726 2.18366 54.1343 2.33369V2.33994ZM44.3617 15.1681V14.1678C44.3617 12.8831 45.2866 12.3924 46.3679 12.3924C47.4491 12.3924 48.3135 12.9019 48.3135 14.1678V14.6398C48.3135 14.9618 48.3709 15.018 48.7377 15.018H59.2247C60.4016 15.018 60.845 15.6995 60.845 16.4528C60.845 17.2061 60.3825 17.9062 59.2247 17.9062H47.1174C44.939 17.9062 44.3617 17.2061 44.3617 15.1681Z" fill="#1D1B20"/>
<path d="M65.9901 10.2948C63.6586 10.2948 63.2344 9.61334 63.2344 7.42218V3.64313C63.2344 1.45197 63.6586 0.770556 65.9901 0.770556H71.3102C73.6417 0.770556 74.0659 1.45197 74.0659 3.64313V10.2916H65.9901V10.2948ZM66.9151 17.9091C64.7558 17.9091 64.1785 17.1714 64.1785 15.1522V13.2267C64.1785 11.942 65.0843 11.3575 66.1655 11.3575C67.2468 11.3575 68.092 11.9608 68.092 13.2267V14.5114C68.092 14.9271 68.1877 14.9834 68.6119 14.9834H79.0798C80.2567 14.9834 80.7001 15.6836 80.7001 16.4369C80.7001 17.1902 80.2376 17.9091 79.0798 17.9091H66.9151ZM67.3584 7.51908H70.4044V4.02447C70.4044 3.66501 70.3087 3.55248 69.9227 3.55248H67.3584C66.9725 3.55248 66.8959 3.66501 66.8959 4.02447V7.02833C66.8959 7.4253 66.9725 7.51908 67.3584 7.51908ZM76.3017 2.03962C76.3017 0.811191 77.2267 0.17041 78.2473 0.17041C79.268 0.17041 80.1929 0.833072 80.1929 2.03962V13.5268H76.2986V2.03649L76.3017 2.03962Z" fill="#1D1B20"/>
<path d="M92.9409 13.9584V18H89.0083V13.9584H83.5734C82.4156 13.9584 81.9531 13.202 81.9531 12.4268C81.9531 11.6516 82.3965 10.8764 83.5734 10.8764H98.379C99.556 10.8764 99.9993 11.6703 99.9993 12.4268C99.9993 13.1832 99.5368 13.9584 98.379 13.9584H92.9441H92.9409ZM92.7081 3.37768C96.006 3.41519 99.2816 5.49382 99.6102 10.1043H95.7158C95.3299 7.76313 93.5756 6.34403 91.3207 6.40029C89.5856 8.68523 86.6927 10.1606 84.0518 10.1606C83.1077 10.1606 82.3359 9.61358 82.2593 8.68835C82.1828 7.78188 82.7027 7.0442 83.685 6.87541C86.2111 6.44093 88.5043 4.6655 88.9094 1.94608C89.0816 0.755167 89.9875 0.170649 91.0687 0.245667C92.1882 0.33944 92.8995 1.05837 92.8612 2.24928C92.8421 2.64625 92.7847 3.00572 92.7081 3.38393V3.37768Z" fill="#1D1B20"/>
</svg>
