<svg width="24" height="24" viewBox="0 0 24 24" fill="none" xmlns="http://www.w3.org/2000/svg">
<path d="M16.994 1.06666C15.4208 1.05299 13.9052 1.65776 12.7736 2.75071L12.7632 2.76083L11.0432 4.47083C10.6516 4.86021 10.6497 5.49338 11.0391 5.88504C11.4285 6.2767 12.0617 6.27855 12.4533 5.88916L14.1679 4.18453C14.9218 3.4589 15.9301 3.05749 16.9766 3.06659C18.0254 3.0757 19.0286 3.49638 19.7703 4.23801C20.5119 4.97964 20.9326 5.98289 20.9417 7.03168C20.9508 8.07773 20.5497 9.0856 19.8247 9.83937L16.8312 12.8329C16.4257 13.2385 15.9375 13.5524 15.4001 13.7528C14.8627 13.9533 14.2885 14.0359 13.7164 13.9949C13.1443 13.9539 12.5877 13.7904 12.0843 13.5154C11.5809 13.2404 11.1426 12.8603 10.7991 12.401C10.4682 11.9588 9.84156 11.8684 9.39931 12.1992C8.95706 12.53 8.86672 13.1567 9.19753 13.599C9.71287 14.2879 10.3704 14.858 11.1254 15.2705C11.8804 15.683 12.7153 15.9283 13.5735 15.9898C14.4317 16.0512 15.293 15.9274 16.0991 15.6267C16.9053 15.326 17.6373 14.8555 18.2455 14.247L21.2454 11.2471L21.2576 11.2347C22.3505 10.1031 22.9553 8.58748 22.9416 7.0143C22.928 5.44112 22.2969 3.93624 21.1845 2.8238C20.072 1.71135 18.5672 1.08033 16.994 1.06666Z" fill="#ACB5C8"/>
<path d="M10.423 8.01021C9.56486 7.94875 8.70351 8.07257 7.8974 8.37327C7.09134 8.67395 6.35938 9.14446 5.75114 9.75288L2.75114 12.7529L2.73896 12.7653C1.64601 13.8969 1.04124 15.4125 1.05491 16.9857C1.06858 18.5589 1.6996 20.0637 2.81205 21.1762C3.9245 22.2886 5.42937 22.9197 7.00255 22.9333C8.57573 22.947 10.0913 22.3422 11.223 21.2493L11.2354 21.2371L12.9454 19.5271C13.3359 19.1366 13.3359 18.5034 12.9454 18.1129C12.5548 17.7224 11.9217 17.7224 11.5311 18.1129L9.82761 19.8164C9.07384 20.5414 8.06598 20.9425 7.01993 20.9334C5.97114 20.9243 4.96789 20.5036 4.22626 19.762C3.48463 19.0203 3.06395 18.0171 3.05484 16.9683C3.04575 15.9223 3.4468 14.9144 4.17184 14.1606L7.16535 11.1671C7.57086 10.7614 8.059 10.4476 8.59641 10.2471C9.13381 10.0467 9.70805 9.96413 10.2802 10.0051C10.8523 10.0461 11.4089 10.2096 11.9122 10.4846C12.4156 10.7596 12.8539 11.1397 13.1975 11.599C13.5283 12.0412 14.155 12.1316 14.5972 11.8008C15.0395 11.4699 15.1298 10.8433 14.799 10.401C14.2837 9.71206 13.6262 9.14199 12.8712 8.72948C12.1161 8.31697 11.2812 8.07167 10.423 8.01021Z" fill="#ACB5C8"/>
</svg>
