<svg width="24" height="24" viewBox="0 0 24 24" fill="none" xmlns="http://www.w3.org/2000/svg">
<g id="ic-message-circle">
<path id="Shape" fill-rule="evenodd" clip-rule="evenodd" d="M12.5042 4C8.36475 4 5.00906 7.35569 5.00906 11.4952C5.00906 12.6933 5.28945 13.823 5.78727 14.8251C5.90489 15.0618 5.92399 15.3355 5.84039 15.5862L4.57154 19.3927L8.41643 18.1529C8.66503 18.0727 8.93514 18.093 9.16897 18.2094C10.1723 18.7089 11.304 18.9903 12.5042 18.9903C16.6437 18.9903 19.9994 15.6346 19.9994 11.4952C19.9994 7.35569 16.6437 4 12.5042 4ZM3.00906 11.4952C3.00906 6.25113 7.26019 2 12.5042 2C17.7482 2 21.9994 6.25113 21.9994 11.4952C21.9994 16.7392 17.7482 20.9903 12.5042 20.9903C11.1357 20.9903 9.83254 20.7002 8.65493 20.1774L3.30496 21.9025C2.94615 22.0182 2.55277 21.9223 2.2875 21.6544C2.02223 21.3865 1.93017 20.9922 2.04939 20.6345L3.81674 15.3326C3.29725 14.1581 3.00906 12.8591 3.00906 11.4952Z" fill="#6C7080"/>
</g>
</svg>
