<svg width="24" height="25" viewBox="0 0 24 25" fill="none" xmlns="http://www.w3.org/2000/svg">
<path d="M12 2.5C17.5228 2.5 22 6.97715 22 12.5C22 18.0228 17.5228 22.5 12 22.5C6.47715 22.5 2 18.0228 2 12.5C2 6.97715 6.47715 2.5 12 2.5ZM12.1597 16.5C10.1243 16.5 8.29182 17.3687 7.01276 18.7556C8.38039 19.8474 10.114 20.5 12 20.5C13.9695 20.5 15.7727 19.7883 17.1666 18.6081C15.8956 17.3074 14.1219 16.5 12.1597 16.5ZM12 4.5C7.58172 4.5 4 8.08172 4 12.5C4 14.3106 4.6015 15.9807 5.61557 17.3214C7.25639 15.5841 9.58144 14.5 12.1597 14.5C14.6441 14.5 16.8933 15.5066 18.5218 17.1342C19.4526 15.8267 20 14.2273 20 12.5C20 8.08172 16.4183 4.5 12 4.5ZM12 5.5C14.2091 5.5 16 7.29086 16 9.5C16 11.7091 14.2091 13.5 12 13.5C9.79086 13.5 8 11.7091 8 9.5C8 7.29086 9.79086 5.5 12 5.5ZM12 7.5C10.8954 7.5 10 8.39543 10 9.5C10 10.6046 10.8954 11.5 12 11.5C13.1046 11.5 14 10.6046 14 9.5C14 8.39543 13.1046 7.5 12 7.5Z" fill="#A5A8B8"/>
</svg>
