<svg xmlns="http://www.w3.org/2000/svg" width="24" height="24" viewBox="0 0 24 24" fill="none">
<path d="M13.1182 2.39706C13.5088 2.00653 14.1419 2.00652 14.5325 2.39705L21.6035 9.4681C21.9941 9.85862 21.9941 10.4918 21.6035 10.8823C21.213 11.2728 20.5799 11.2728 20.1894 10.8823L15.9466 15.125L15.3307 18.2047C15.2713 18.5019 15.1252 18.7749 14.9109 18.9892C14.3114 19.5887 13.3393 19.5887 12.7398 18.9892L9.58271 15.8321L5.34007 20.0747C4.94955 20.4652 4.31639 20.4652 3.92587 20.0747C3.53534 19.6842 3.53534 19.051 3.92587 18.6605L8.1685 14.4179L5.01138 11.2607C4.41186 10.6612 4.41187 9.6892 5.0114 9.08968C5.22571 8.87537 5.49866 8.72929 5.79585 8.66986L8.87561 8.0539L13.1182 3.81126C12.7277 3.42074 12.7277 2.78758 13.1182 2.39706ZM14.886 5.57903C14.6907 5.38377 14.3742 5.38377 14.1789 5.57903L9.86163 9.89631L7.40619 10.3874C7.24956 10.4187 7.19104 10.612 7.304 10.7249L13.2756 16.6966C13.3886 16.8095 13.5818 16.751 13.6131 16.5944L14.1042 14.1389L18.4216 9.82168C18.6169 9.62641 18.6169 9.30983 18.4216 9.11456L14.886 5.57903Z" fill="#3B3B4C"/>
</svg>