<svg width="62" height="62" viewBox="0 0 62 62" fill="none" xmlns="http://www.w3.org/2000/svg">
<circle cx="31" cy="31" r="30.5" stroke="#FC1E6E" stroke-opacity="0.6"/>
<circle cx="31" cy="31" r="27.5" stroke="#FC1E6E" stroke-opacity="0.6"/>
<path d="M14.3125 27.5293V28.5254H12.5449C12.5498 29.5654 13.1748 30.6348 14.6152 31.0938L13.9805 32.0605C12.9941 31.7383 12.3154 31.1035 11.9297 30.3125C11.5342 31.1768 10.8213 31.8701 9.79102 32.207L9.12695 31.25C10.5967 30.7764 11.2705 29.6338 11.2852 28.5254H9.46875V27.5293H14.3125ZM10.3281 33.7402V32.7539H16.3145V35.8984H15.0645V33.7402H10.3281ZM15.0645 32.373V27.0117H16.3145V29.1699H17.5156V30.2051H16.3145V32.373H15.0645ZM21.2656 28.2227C21.2607 29.4092 21.8711 30.5078 23.2969 30.9473L22.6426 31.9238C21.6855 31.5918 21.0361 30.9814 20.6602 30.1807C20.2695 31.1084 19.5518 31.8359 18.4824 32.1973L17.8281 31.2012C19.3467 30.7129 20.001 29.5215 20.0059 28.2812V27.4707H21.2656V28.2227ZM19.3027 34.1797C19.3027 33.0859 20.4648 32.4463 22.3594 32.4512C24.2588 32.4463 25.4209 33.0859 25.4258 34.1797C25.4209 35.2783 24.2588 35.9033 22.3594 35.8984C20.4648 35.9033 19.3027 35.2783 19.3027 34.1797ZM20.543 34.1797C20.543 34.6729 21.1826 34.9316 22.3594 34.9316C23.541 34.9316 24.1807 34.6729 24.1855 34.1797C24.1807 33.6719 23.541 33.418 22.3594 33.418C21.1826 33.418 20.543 33.6719 20.543 34.1797ZM22.4863 29.6582V28.6426H24.1562V27.0117H25.3965V32.2168H24.1562V29.6582H22.4863ZM29.8301 29.4336C29.8252 30.7861 30.5479 32.3486 32.0078 33.0273L31.3145 34.0039C30.3232 33.5498 29.6201 32.6416 29.2197 31.5771C28.8242 32.749 28.0918 33.7451 27.0664 34.2285L26.3438 33.2422C27.8232 32.5537 28.5703 30.9033 28.5801 29.4336V28.8867H26.6953V27.8711H31.6172V28.8867H29.8301V29.4336ZM32.3105 35.8984V27.0117H33.5605V30.4004H34.8691V31.4453H33.5605V35.8984H32.3105ZM40.2695 29.6973C40.2695 31.0352 40.7432 32.3975 42.0273 33.0664L41.334 33.9844C40.5332 33.5742 40.001 32.8564 39.6885 31.9922C39.3809 32.9297 38.8486 33.7305 38.043 34.1895L37.3398 33.252C38.6045 32.5293 39.0879 31.0791 39.0977 29.6973V29.5312H37.623V28.5156H39.0977V27.3145H40.2598V28.5156H41.7246V29.5312H40.2695V29.6973ZM42.125 35.4883V27.1387H43.3066V30.4297H44.0586V27.0117H45.25V35.8984H44.0586V31.4453H43.3066V35.4883H42.125ZM49.9668 27.6074V28.6035H47.6426V29.3359H49.8789V30.2832H47.6426V31.0693C48.6289 31.0596 49.3564 31.0205 50.1816 30.8789L50.3086 31.875C49.2686 32.0605 48.3994 32.0947 47.0566 32.0898H46.4512V27.6074H49.9668ZM47.6328 33.8086V32.8125H53.7754V35.8984H52.5352V33.8086H47.6328ZM50.6602 32.373V27.1777H51.8223V29.1895H52.5938V27.0215H53.7754V32.4414H52.5938V30.1855H51.8223V32.373H50.6602Z" fill="#FC1E6E" fill-opacity="0.6"/>
<rect x="11" y="21" width="40" height="1" fill="#FC1E6E" fill-opacity="0.6"/>
<rect x="11" y="41" width="40" height="1" fill="#FC1E6E" fill-opacity="0.6"/>
<path d="M31 7L32.1226 10.4549H35.7553L32.8164 12.5902L33.9389 16.0451L31 13.9098L28.0611 16.0451L29.1836 12.5902L26.2447 10.4549H29.8774L31 7Z" fill="#FC1E6E" fill-opacity="0.6"/>
<path d="M20 11L20.6735 13.0729H22.8532L21.0898 14.3541L21.7634 16.4271L20 15.1459L18.2366 16.4271L18.9102 14.3541L17.1468 13.0729H19.3265L20 11Z" fill="#FC1E6E" fill-opacity="0.6"/>
<path d="M41 11L41.6735 13.0729H43.8532L42.0898 14.3541L42.7634 16.4271L41 15.1459L39.2366 16.4271L39.9102 14.3541L38.1468 13.0729H40.3265L41 11Z" fill="#FC1E6E" fill-opacity="0.6"/>
<path d="M31 56L32.1226 52.5451H35.7553L32.8164 50.4098L33.9389 46.9549L31 49.0902L28.0611 46.9549L29.1836 50.4098L26.2447 52.5451H29.8774L31 56Z" fill="#FC1E6E" fill-opacity="0.6"/>
<path d="M20 52L20.6735 49.9271H22.8532L21.0898 48.6459L21.7634 46.5729L20 47.8541L18.2366 46.5729L18.9102 48.6459L17.1468 49.9271H19.3265L20 52Z" fill="#FC1E6E" fill-opacity="0.6"/>
<path d="M41 52L41.6735 49.9271H43.8532L42.0898 48.6459L42.7634 46.5729L41 47.8541L39.2366 46.5729L39.9102 48.6459L38.1468 49.9271H40.3265L41 52Z" fill="#FC1E6E" fill-opacity="0.6"/>
</svg>