<svg width="50" height="50" viewBox="0 0 50 50" fill="none" xmlns="http://www.w3.org/2000/svg">
<g id="Frame" clip-path="url(#clip0_210_841)">
<circle id="Ellipse 9" cx="25" cy="25" r="25" fill="#FFD600"/>
<path id="Vector" d="M24.9998 8C36.0455 8 45 15.0255 45 23.6917C45 32.3581 36.0455 39.3835 24.9998 39.3835C23.8794 39.3835 22.7812 39.3098 21.7109 39.171L13.3145 44.6989C12.3595 45.2077 12.0223 45.1512 12.4155 43.9071L14.1138 36.8564C8.62807 34.0584 5 29.2079 5 23.6917C5 15.0255 13.9542 8 24.9998 8ZM36.2514 23.4509L39.052 20.7229C39.4088 20.3753 39.4181 19.8026 39.073 19.4434C38.7278 19.0847 38.1589 19.0751 37.8017 19.4225L34.129 23V20.0444C34.129 19.5449 33.7267 19.1397 33.2301 19.1397C32.7339 19.1397 32.3313 19.5449 32.3313 20.0444V24.9467C32.2973 25.0867 32.2981 25.2316 32.3313 25.372V28.1306C32.3313 28.6302 32.7339 29.0354 33.2301 29.0354C33.7267 29.0354 34.129 28.6302 34.129 28.1306V25.5181L34.9434 24.7249L37.6631 28.6224C37.8381 28.8732 38.1168 29.0074 38.3994 29.0074C38.5781 29.0074 38.7583 28.9537 38.9154 28.8427C39.3217 28.5557 39.4196 27.9912 39.1343 27.5823L36.2514 23.4509ZM30.6177 27.1412H27.837V20.0727C27.837 19.5732 27.4345 19.168 26.9379 19.168C26.4417 19.168 26.0394 19.5732 26.0394 20.0727V28.0457C26.0394 28.5455 26.4417 28.9504 26.9379 28.9504H30.6177C31.1143 28.9504 31.5166 28.5455 31.5166 28.0457C31.5166 27.5463 31.1143 27.1412 30.6177 27.1412ZM19.4613 25.0487L20.7871 21.7749L22.001 25.0487H19.4613ZM24.2665 25.9837C24.2669 25.9734 24.2695 25.964 24.2695 25.9536C24.2695 25.7159 24.1766 25.5016 24.0278 25.3401L22.0366 19.9706C21.8492 19.434 21.38 19.0779 20.8412 19.0628C20.3114 19.0484 19.8184 19.3819 19.5972 19.9187L16.4333 27.7326C16.2461 28.1952 16.4668 28.7234 16.9265 28.9121C17.3863 29.1007 17.9109 28.8783 18.0981 28.4155L18.7286 26.8584H22.6718L23.24 28.3906C23.3751 28.7545 23.7177 28.9792 24.0825 28.979C24.1869 28.979 24.293 28.9606 24.3966 28.9217C24.8617 28.7472 25.0979 28.2259 24.9242 27.7575L24.2665 25.9837ZM17.94 20.0821C17.94 19.5826 17.5374 19.1774 17.0411 19.1774H10.8614C10.3649 19.1774 9.96236 19.5826 9.96236 20.0821C9.96236 20.5816 10.3649 20.9868 10.8614 20.9868H13.071V28.1496C13.071 28.6492 13.4735 29.0541 13.9698 29.0541C14.4663 29.0541 14.8688 28.6492 14.8688 28.1496V20.9868H17.0411C17.5374 20.9868 17.94 20.5816 17.94 20.0821Z" fill="#1D1B20"/>
</g>
<defs>
<clipPath id="clip0_210_841">
<rect width="50" height="50" fill="white"/>
</clipPath>
</defs>
</svg>
