<svg width="101" height="18" viewBox="0 0 101 18" fill="none" xmlns="http://www.w3.org/2000/svg">
<g id="Group 140">
<path id="Vector" d="M9.23359 0.714489C10.2351 0.714489 10.5827 1.50843 10.5827 2.18672C10.5827 2.83063 10.216 3.62145 9.23359 3.62145H4.33771C3.97092 3.62145 3.79869 3.75273 3.79869 4.07468V6.17207C3.79869 6.53153 3.97092 6.64406 4.33771 6.64406H9.96717C10.9687 6.64406 11.3355 7.41925 11.3355 8.06003C11.3355 8.74145 10.9687 9.51351 9.96717 9.51351H2.73659C0.596436 9.51976 0 8.83834 0 6.89412V3.34325C0 1.3959 0.596436 0.714489 2.73659 0.714489H9.23359ZM4.60563 10.5575H12.7612C15.4021 10.5575 16.7512 12.1829 16.7512 14.2615C16.7512 16.3402 15.4021 17.9656 12.7612 17.9656H4.60563C1.92646 17.9656 0.615573 16.3027 0.615573 14.2615C0.615573 12.2204 1.92646 10.5575 4.60563 10.5575ZM5.62627 15.318H11.7373C12.5857 15.318 12.8377 14.7335 12.8377 14.2615C12.8377 13.7896 12.5857 13.205 11.7373 13.205H5.62627C4.77786 13.205 4.52589 13.7896 4.52589 14.2615C4.52589 14.7335 4.77786 15.318 5.62627 15.318ZM12.6272 2.03669C12.6272 0.808262 13.5139 0.16748 14.5345 0.16748C15.5552 0.16748 16.4418 0.830142 16.4418 2.03669V3.58706H17.0383C18.2152 3.58706 18.5597 4.45603 18.5597 5.21246C18.5597 5.96889 18.1929 6.83786 17.0383 6.83786H16.4418V10.1074H12.624V2.03669H12.6272Z" fill="#6138F8"/>
<path id="Vector_2" d="M26.4883 3.79336V4.15283C26.4883 4.45603 26.4691 4.7561 26.4309 5.04054C29.4003 5.13432 30.8068 6.64718 30.7494 9.96987H27.1453C27.2601 8.49763 26.5297 7.66618 25.3719 7.7412C24.2524 9.27282 22.4217 10.1043 20.6292 10.1605C19.6851 10.1981 18.8941 9.63229 18.8558 8.78208C18.8175 7.89436 19.2609 7.34735 20.0327 7.21295C21.787 6.9285 22.8076 5.74071 22.8076 4.15283V3.79336H20.3963C19.4905 3.79336 18.9898 2.96191 18.9898 2.2805C18.9898 1.59908 19.414 0.748872 20.3963 0.748872H29.2057C30.1881 0.748872 30.6123 1.59908 30.6123 2.2805C30.6123 2.96191 30.1115 3.79336 29.2057 3.79336H26.4883ZM23.8474 17.9624C21.1682 17.9624 19.8956 16.4308 19.8956 14.3928C19.8956 12.3548 21.1682 10.7857 23.8474 10.7857H32.0795C34.7204 10.7857 36.0312 12.3361 36.0312 14.3928C36.0312 16.4496 34.7204 17.9624 32.0795 17.9624H23.8474ZM31.0556 15.3368C31.904 15.3368 32.1145 14.8085 32.1145 14.3928C32.1145 13.9771 31.9008 13.4864 31.0556 13.4864H24.868C24.0196 13.4864 23.8091 13.9771 23.8091 14.3928C23.8091 14.8085 24.0228 15.3368 24.868 15.3368H31.0556ZM31.904 2.03669C31.904 0.808262 32.7907 0.16748 33.8114 0.16748C34.832 0.16748 35.7187 0.830142 35.7187 2.03669V3.50892H36.3151C37.492 3.50892 37.8365 4.37788 37.8365 5.13432C37.8365 5.89075 37.4697 6.75971 36.3151 6.75971H35.7187V10.2168H31.9008V2.03669H31.904Z" fill="#6138F8"/>
<path id="Vector_3" d="M50.5665 8.87591V8.02571C50.5665 6.79728 51.4914 6.34405 52.5121 6.34405C53.5327 6.34405 54.4577 6.81604 54.4577 8.02571V8.87591H59.934C61.0344 8.87591 61.4363 9.66986 61.4363 10.3669C61.4363 11.0639 61.0121 11.8391 59.934 11.8391H44.8987C43.8207 11.8391 43.3965 11.0827 43.3965 10.3669C43.3965 9.6511 43.8016 8.87591 44.8987 8.87591H50.5665ZM54.1323 2.33994C57.1974 2.39621 59.8383 3.84969 60.8972 7.59122H57.0029C56.0779 5.83455 54.3428 4.94683 52.3175 5.15313C50.5633 6.68475 47.8841 7.685 45.5334 7.64749C44.3948 7.62873 43.8366 6.85354 43.8558 6.09711C43.8749 5.32192 44.4713 4.56549 45.6291 4.52798C47.5364 4.45296 49.8329 3.09325 50.2762 1.54288C50.6047 0.408224 51.5106 -0.0825205 52.5503 0.0112524C53.571 0.105025 54.3046 0.633279 54.2089 1.8617C54.1897 2.03049 54.1706 2.18366 54.1323 2.33369V2.33994ZM44.3597 15.1681V14.1678C44.3597 12.8831 45.2847 12.3924 46.3659 12.3924C47.4471 12.3924 48.3115 12.9019 48.3115 14.1678V14.6398C48.3115 14.9618 48.3689 15.018 48.7357 15.018H59.2228C60.3997 15.018 60.843 15.6995 60.843 16.4528C60.843 17.2061 60.3805 17.9062 59.2228 17.9062H47.1154C44.937 17.9062 44.3597 17.2061 44.3597 15.1681Z" fill="#6138F8"/>
<path id="Vector_4" d="M65.9901 10.2948C63.6586 10.2948 63.2344 9.61334 63.2344 7.42218V3.64313C63.2344 1.45197 63.6586 0.770556 65.9901 0.770556H71.3102C73.6417 0.770556 74.0659 1.45197 74.0659 3.64313V10.2916H65.9901V10.2948ZM66.9151 17.9091C64.7558 17.9091 64.1785 17.1714 64.1785 15.1522V13.2267C64.1785 11.942 65.0843 11.3575 66.1655 11.3575C67.2468 11.3575 68.092 11.9608 68.092 13.2267V14.5114C68.092 14.9271 68.1877 14.9834 68.6119 14.9834H79.0798C80.2567 14.9834 80.7001 15.6836 80.7001 16.4369C80.7001 17.1902 80.2376 17.9091 79.0798 17.9091H66.9151ZM67.3584 7.51908H70.4044V4.02447C70.4044 3.66501 70.3087 3.55248 69.9227 3.55248H67.3584C66.9725 3.55248 66.8959 3.66501 66.8959 4.02447V7.02833C66.8959 7.4253 66.9725 7.51908 67.3584 7.51908ZM76.3017 2.03962C76.3017 0.811191 77.2267 0.17041 78.2473 0.17041C79.268 0.17041 80.1929 0.833072 80.1929 2.03962V13.5268H76.2986V2.03649L76.3017 2.03962Z" fill="#6138F8"/>
<path id="Vector_5" d="M92.9429 13.9584V18H89.0102V13.9584H83.5753C82.4176 13.9584 81.9551 13.202 81.9551 12.4268C81.9551 11.6516 82.3984 10.8764 83.5753 10.8764H98.381C99.5579 10.8764 100.001 11.6703 100.001 12.4268C100.001 13.1832 99.5388 13.9584 98.381 13.9584H92.9461H92.9429ZM92.7101 3.37768C96.008 3.41519 99.2836 5.49382 99.6121 10.1043H95.7177C95.3318 7.76313 93.5776 6.34403 91.3226 6.40029C89.5875 8.68523 86.6947 10.1606 84.0538 10.1606C83.1097 10.1606 82.3378 9.61358 82.2613 8.68835C82.1847 7.78188 82.7046 7.0442 83.687 6.87541C86.2131 6.44093 88.5063 4.6655 88.9114 1.94608C89.0836 0.755167 89.9894 0.170649 91.0707 0.245667C92.1902 0.33944 92.9014 1.05837 92.8631 2.24928C92.844 2.64625 92.7866 3.00572 92.7101 3.38393V3.37768Z" fill="#6138F8"/>
</g>
</svg>
