<svg width="20" height="19" viewBox="0 0 20 19" fill="none" xmlns="http://www.w3.org/2000/svg">
<path id="Vector" d="M19.389 7.25973C18.637 5.98269 17.6884 4.84197 16.5809 3.88286L18.9134 1.46401C19.0651 1.30109 19.1491 1.08287 19.1472 0.856365C19.1453 0.629861 19.0577 0.413191 18.9032 0.253022C18.7488 0.0928534 18.5398 0.00200092 18.3214 3.26566e-05C18.103 -0.00193561 17.8926 0.0851379 17.7355 0.242499L15.1989 2.87644C13.6265 1.90789 11.8288 1.40308 10 1.4165C4.84274 1.4165 1.90383 5.07759 0.610978 7.25973C0.211566 7.92967 0 8.70174 0 9.48938C0 10.277 0.211566 11.0491 0.610978 11.719C1.363 12.9961 2.31159 14.1368 3.4191 15.0959L1.08664 17.5148C1.00707 17.5944 0.943612 17.6898 0.899954 17.7952C0.856296 17.9006 0.833315 18.0139 0.832354 18.1286C0.831393 18.2433 0.85247 18.3571 0.894355 18.4632C0.936241 18.5694 0.998095 18.6659 1.07631 18.747C1.15453 18.8281 1.24753 18.8922 1.34991 18.9357C1.45229 18.9791 1.56198 19.001 1.67259 19C1.78319 18.999 1.8925 18.9751 1.99414 18.9299C2.09577 18.8846 2.18769 18.8188 2.26453 18.7363L4.80692 16.0997C6.3774 17.0681 8.1729 17.5738 10 17.5623C15.1573 17.5623 18.0962 13.9012 19.389 11.719C19.7884 11.0491 20 10.277 20 9.48938C20 8.70174 19.7884 7.92967 19.389 7.25973ZM2.03045 10.8146C1.79315 10.4164 1.66746 9.95749 1.66746 9.48938C1.66746 9.02127 1.79315 8.56241 2.03045 8.1642C3.14171 6.29306 5.65328 3.14425 10 3.14425C11.383 3.13621 12.7467 3.48188 13.9702 4.15066L12.2933 5.88963C11.4936 5.339 10.5347 5.09227 9.57952 5.19132C8.62431 5.29036 7.73156 5.72907 7.05276 6.43301C6.37396 7.13694 5.95091 8.06275 5.85541 9.05333C5.7599 10.0439 5.99782 11.0382 6.52879 11.8676L4.6045 13.8632C3.58413 13.0077 2.7134 11.9764 2.03045 10.8146ZM12.4991 9.48938C12.4991 10.1767 12.2358 10.8359 11.7671 11.3219C11.2984 11.808 10.6628 12.081 10 12.081C9.6289 12.0795 9.26294 11.9909 8.92956 11.8218L12.2492 8.37931C12.4122 8.72503 12.4976 9.10454 12.4991 9.48938ZM7.50093 9.48938C7.50093 8.80204 7.76422 8.14286 8.23289 7.65683C8.70156 7.17081 9.3372 6.89777 10 6.89777C10.3711 6.89926 10.7371 6.98786 11.0704 7.15693L7.75083 10.5995C7.5878 10.2537 7.50236 9.87423 7.50093 9.48938ZM17.9695 10.8146C16.8583 12.6857 14.3467 15.8345 10 15.8345C8.61695 15.8426 7.25332 15.4969 6.0298 14.8281L7.70668 13.0891C8.50644 13.6398 9.46528 13.8865 10.4205 13.7875C11.3757 13.6884 12.2684 13.2497 12.9472 12.5458C13.626 11.8418 14.0491 10.916 14.1446 9.92544C14.2401 8.93486 14.0022 7.94052 13.4712 7.11114L15.3955 5.1156C16.4159 5.97108 17.2866 7.00234 17.9695 8.1642C18.2068 8.56241 18.3325 9.02127 18.3325 9.48938C18.3325 9.95749 18.2068 10.4164 17.9695 10.8146Z" fill="#BDBDBD"/>
</svg>
