<svg width="390" height="292" viewBox="0 0 390 292" fill="none" xmlns="http://www.w3.org/2000/svg">
<g clip-path="url(#clip0_537_13839)">
<rect width="390" height="292" fill="#6138F8"/>
<g opacity="0.05">
<rect width="16.24" height="16.24" stroke="#1D1B20" stroke-width="0.813889"/>
<rect x="16.2402" width="16.24" height="16.24" stroke="#1D1B20" stroke-width="0.813889"/>
<rect x="32.4805" width="16.24" height="16.24" stroke="#1D1B20" stroke-width="0.813889"/>
<rect x="48.7207" width="16.24" height="16.24" stroke="#1D1B20" stroke-width="0.813889"/>
<rect x="64.9609" width="16.24" height="16.24" stroke="#1D1B20" stroke-width="0.813889"/>
<rect x="81.1992" width="16.24" height="16.24" stroke="#1D1B20" stroke-width="0.813889"/>
<rect x="97.4395" width="16.24" height="16.24" stroke="#1D1B20" stroke-width="0.813889"/>
<rect x="113.68" width="16.24" height="16.24" stroke="#1D1B20" stroke-width="0.813889"/>
<rect x="129.92" width="16.24" height="16.24" stroke="#1D1B20" stroke-width="0.813889"/>
<rect x="146.16" width="16.24" height="16.24" stroke="#1D1B20" stroke-width="0.813889"/>
<rect x="162.4" width="16.24" height="16.24" stroke="#1D1B20" stroke-width="0.813889"/>
<rect x="178.641" width="16.24" height="16.24" stroke="#1D1B20" stroke-width="0.813889"/>
<rect x="194.881" width="16.24" height="16.24" stroke="#1D1B20" stroke-width="0.813889"/>
<rect x="211.119" width="16.24" height="16.24" stroke="#1D1B20" stroke-width="0.813889"/>
<rect x="227.359" width="16.24" height="16.24" stroke="#1D1B20" stroke-width="0.813889"/>
<rect x="243.6" width="16.24" height="16.24" stroke="#1D1B20" stroke-width="0.813889"/>
<rect x="259.84" width="16.24" height="16.24" stroke="#1D1B20" stroke-width="0.813889"/>
<rect x="276.08" width="16.24" height="16.24" stroke="#1D1B20" stroke-width="0.813889"/>
<rect x="292.32" width="16.24" height="16.24" stroke="#1D1B20" stroke-width="0.813889"/>
<rect x="308.561" width="16.24" height="16.24" stroke="#1D1B20" stroke-width="0.813889"/>
<rect x="324.801" width="16.24" height="16.24" stroke="#1D1B20" stroke-width="0.813889"/>
<rect x="341.039" width="16.24" height="16.24" stroke="#1D1B20" stroke-width="0.813889"/>
<rect x="357.279" width="16.24" height="16.24" stroke="#1D1B20" stroke-width="0.813889"/>
<rect x="373.52" width="16.24" height="16.24" stroke="#1D1B20" stroke-width="0.813889"/>
<rect y="16.2402" width="16.24" height="16.24" stroke="#1D1B20" stroke-width="0.813889"/>
<rect x="16.2402" y="16.2402" width="16.24" height="16.24" stroke="#1D1B20" stroke-width="0.813889"/>
<rect x="32.4805" y="16.2402" width="16.24" height="16.24" stroke="#1D1B20" stroke-width="0.813889"/>
<rect x="48.7207" y="16.2402" width="16.24" height="16.24" stroke="#1D1B20" stroke-width="0.813889"/>
<rect x="64.9609" y="16.2402" width="16.24" height="16.24" stroke="#1D1B20" stroke-width="0.813889"/>
<rect x="81.1992" y="16.2402" width="16.24" height="16.24" stroke="#1D1B20" stroke-width="0.813889"/>
<rect x="97.4395" y="16.2402" width="16.24" height="16.24" stroke="#1D1B20" stroke-width="0.813889"/>
<rect x="113.68" y="16.2402" width="16.24" height="16.24" stroke="#1D1B20" stroke-width="0.813889"/>
<rect x="129.92" y="16.2402" width="16.24" height="16.24" stroke="#1D1B20" stroke-width="0.813889"/>
<rect x="146.16" y="16.2402" width="16.24" height="16.24" stroke="#1D1B20" stroke-width="0.813889"/>
<rect x="162.4" y="16.2402" width="16.24" height="16.24" stroke="#1D1B20" stroke-width="0.813889"/>
<rect x="178.641" y="16.2402" width="16.24" height="16.24" stroke="#1D1B20" stroke-width="0.813889"/>
<rect x="194.881" y="16.2402" width="16.24" height="16.24" stroke="#1D1B20" stroke-width="0.813889"/>
<rect x="211.119" y="16.2402" width="16.24" height="16.24" stroke="#1D1B20" stroke-width="0.813889"/>
<rect x="227.359" y="16.2402" width="16.24" height="16.24" stroke="#1D1B20" stroke-width="0.813889"/>
<rect x="243.6" y="16.2402" width="16.24" height="16.24" stroke="#1D1B20" stroke-width="0.813889"/>
<rect x="259.84" y="16.2402" width="16.24" height="16.24" stroke="#1D1B20" stroke-width="0.813889"/>
<rect x="276.08" y="16.2402" width="16.24" height="16.24" stroke="#1D1B20" stroke-width="0.813889"/>
<rect x="292.32" y="16.2402" width="16.24" height="16.24" stroke="#1D1B20" stroke-width="0.813889"/>
<rect x="308.561" y="16.2402" width="16.24" height="16.24" stroke="#1D1B20" stroke-width="0.813889"/>
<rect x="324.801" y="16.2402" width="16.24" height="16.24" stroke="#1D1B20" stroke-width="0.813889"/>
<rect x="341.039" y="16.2402" width="16.24" height="16.24" stroke="#1D1B20" stroke-width="0.813889"/>
<rect x="357.279" y="16.2402" width="16.24" height="16.24" stroke="#1D1B20" stroke-width="0.813889"/>
<rect x="373.52" y="16.2402" width="16.24" height="16.24" stroke="#1D1B20" stroke-width="0.813889"/>
<rect y="32.4805" width="16.24" height="16.24" stroke="#1D1B20" stroke-width="0.813889"/>
<rect x="16.2402" y="32.4805" width="16.24" height="16.24" stroke="#1D1B20" stroke-width="0.813889"/>
<rect x="32.4805" y="32.4805" width="16.24" height="16.24" stroke="#1D1B20" stroke-width="0.813889"/>
<rect x="48.7207" y="32.4805" width="16.24" height="16.24" stroke="#1D1B20" stroke-width="0.813889"/>
<rect x="64.9609" y="32.4805" width="16.24" height="16.24" stroke="#1D1B20" stroke-width="0.813889"/>
<rect x="81.1992" y="32.4805" width="16.24" height="16.24" stroke="#1D1B20" stroke-width="0.813889"/>
<rect x="97.4395" y="32.4805" width="16.24" height="16.24" stroke="#1D1B20" stroke-width="0.813889"/>
<rect x="113.68" y="32.4805" width="16.24" height="16.24" stroke="#1D1B20" stroke-width="0.813889"/>
<rect x="129.92" y="32.4805" width="16.24" height="16.24" stroke="#1D1B20" stroke-width="0.813889"/>
<rect x="146.16" y="32.4805" width="16.24" height="16.24" stroke="#1D1B20" stroke-width="0.813889"/>
<rect x="162.4" y="32.4805" width="16.24" height="16.24" stroke="#1D1B20" stroke-width="0.813889"/>
<rect x="178.641" y="32.4805" width="16.24" height="16.24" stroke="#1D1B20" stroke-width="0.813889"/>
<rect x="194.881" y="32.4805" width="16.24" height="16.24" stroke="#1D1B20" stroke-width="0.813889"/>
<rect x="211.119" y="32.4805" width="16.24" height="16.24" stroke="#1D1B20" stroke-width="0.813889"/>
<rect x="227.359" y="32.4805" width="16.24" height="16.24" stroke="#1D1B20" stroke-width="0.813889"/>
<rect x="243.6" y="32.4805" width="16.24" height="16.24" stroke="#1D1B20" stroke-width="0.813889"/>
<rect x="259.84" y="32.4805" width="16.24" height="16.24" stroke="#1D1B20" stroke-width="0.813889"/>
<rect x="276.08" y="32.4805" width="16.24" height="16.24" stroke="#1D1B20" stroke-width="0.813889"/>
<rect x="292.32" y="32.4805" width="16.24" height="16.24" stroke="#1D1B20" stroke-width="0.813889"/>
<rect x="308.561" y="32.4805" width="16.24" height="16.24" stroke="#1D1B20" stroke-width="0.813889"/>
<rect x="324.801" y="32.4805" width="16.24" height="16.24" stroke="#1D1B20" stroke-width="0.813889"/>
<rect x="341.039" y="32.4805" width="16.24" height="16.24" stroke="#1D1B20" stroke-width="0.813889"/>
<rect x="357.279" y="32.4805" width="16.24" height="16.24" stroke="#1D1B20" stroke-width="0.813889"/>
<rect x="373.52" y="32.4805" width="16.24" height="16.24" stroke="#1D1B20" stroke-width="0.813889"/>
<rect y="48.7207" width="16.24" height="16.24" stroke="#1D1B20" stroke-width="0.813889"/>
<rect x="16.2402" y="48.7207" width="16.24" height="16.24" stroke="#1D1B20" stroke-width="0.813889"/>
<rect x="32.4805" y="48.7207" width="16.24" height="16.24" stroke="#1D1B20" stroke-width="0.813889"/>
<rect x="48.7207" y="48.7207" width="16.24" height="16.24" stroke="#1D1B20" stroke-width="0.813889"/>
<rect x="64.9609" y="48.7207" width="16.24" height="16.24" stroke="#1D1B20" stroke-width="0.813889"/>
<rect x="81.1992" y="48.7207" width="16.24" height="16.24" stroke="#1D1B20" stroke-width="0.813889"/>
<rect x="97.4395" y="48.7207" width="16.24" height="16.24" stroke="#1D1B20" stroke-width="0.813889"/>
<rect x="113.68" y="48.7207" width="16.24" height="16.24" stroke="#1D1B20" stroke-width="0.813889"/>
<rect x="129.92" y="48.7207" width="16.24" height="16.24" stroke="#1D1B20" stroke-width="0.813889"/>
<rect x="146.16" y="48.7207" width="16.24" height="16.24" stroke="#1D1B20" stroke-width="0.813889"/>
<rect x="162.4" y="48.7207" width="16.24" height="16.24" stroke="#1D1B20" stroke-width="0.813889"/>
<rect x="178.641" y="48.7207" width="16.24" height="16.24" stroke="#1D1B20" stroke-width="0.813889"/>
<rect x="194.881" y="48.7207" width="16.24" height="16.24" stroke="#1D1B20" stroke-width="0.813889"/>
<rect x="211.119" y="48.7207" width="16.24" height="16.24" stroke="#1D1B20" stroke-width="0.813889"/>
<rect x="227.359" y="48.7207" width="16.24" height="16.24" stroke="#1D1B20" stroke-width="0.813889"/>
<rect x="243.6" y="48.7207" width="16.24" height="16.24" stroke="#1D1B20" stroke-width="0.813889"/>
<rect x="259.84" y="48.7207" width="16.24" height="16.24" stroke="#1D1B20" stroke-width="0.813889"/>
<rect x="276.08" y="48.7207" width="16.24" height="16.24" stroke="#1D1B20" stroke-width="0.813889"/>
<rect x="292.32" y="48.7207" width="16.24" height="16.24" stroke="#1D1B20" stroke-width="0.813889"/>
<rect x="308.561" y="48.7207" width="16.24" height="16.24" stroke="#1D1B20" stroke-width="0.813889"/>
<rect x="324.801" y="48.7207" width="16.24" height="16.24" stroke="#1D1B20" stroke-width="0.813889"/>
<rect x="341.039" y="48.7207" width="16.24" height="16.24" stroke="#1D1B20" stroke-width="0.813889"/>
<rect x="357.279" y="48.7207" width="16.24" height="16.24" stroke="#1D1B20" stroke-width="0.813889"/>
<rect x="373.52" y="48.7207" width="16.24" height="16.24" stroke="#1D1B20" stroke-width="0.813889"/>
<rect y="64.9609" width="16.24" height="16.24" stroke="#1D1B20" stroke-width="0.813889"/>
<rect x="16.2402" y="64.9609" width="16.24" height="16.24" stroke="#1D1B20" stroke-width="0.813889"/>
<rect x="32.4805" y="64.9609" width="16.24" height="16.24" stroke="#1D1B20" stroke-width="0.813889"/>
<rect x="48.7207" y="64.9609" width="16.24" height="16.24" stroke="#1D1B20" stroke-width="0.813889"/>
<rect x="64.9609" y="64.9609" width="16.24" height="16.24" stroke="#1D1B20" stroke-width="0.813889"/>
<rect x="81.1992" y="64.9609" width="16.24" height="16.24" stroke="#1D1B20" stroke-width="0.813889"/>
<rect x="97.4395" y="64.9609" width="16.24" height="16.24" stroke="#1D1B20" stroke-width="0.813889"/>
<rect x="113.68" y="64.9609" width="16.24" height="16.24" stroke="#1D1B20" stroke-width="0.813889"/>
<rect x="129.92" y="64.9609" width="16.24" height="16.24" stroke="#1D1B20" stroke-width="0.813889"/>
<rect x="146.16" y="64.9609" width="16.24" height="16.24" stroke="#1D1B20" stroke-width="0.813889"/>
<rect x="162.4" y="64.9609" width="16.24" height="16.24" stroke="#1D1B20" stroke-width="0.813889"/>
<rect x="178.641" y="64.9609" width="16.24" height="16.24" stroke="#1D1B20" stroke-width="0.813889"/>
<rect x="194.881" y="64.9609" width="16.24" height="16.24" stroke="#1D1B20" stroke-width="0.813889"/>
<rect x="211.119" y="64.9609" width="16.24" height="16.24" stroke="#1D1B20" stroke-width="0.813889"/>
<rect x="227.359" y="64.9609" width="16.24" height="16.24" stroke="#1D1B20" stroke-width="0.813889"/>
<rect x="243.6" y="64.9609" width="16.24" height="16.24" stroke="#1D1B20" stroke-width="0.813889"/>
<rect x="259.84" y="64.9609" width="16.24" height="16.24" stroke="#1D1B20" stroke-width="0.813889"/>
<rect x="276.08" y="64.9609" width="16.24" height="16.24" stroke="#1D1B20" stroke-width="0.813889"/>
<rect x="292.32" y="64.9609" width="16.24" height="16.24" stroke="#1D1B20" stroke-width="0.813889"/>
<rect x="308.561" y="64.9609" width="16.24" height="16.24" stroke="#1D1B20" stroke-width="0.813889"/>
<rect x="324.801" y="64.9609" width="16.24" height="16.24" stroke="#1D1B20" stroke-width="0.813889"/>
<rect x="341.039" y="64.9609" width="16.24" height="16.24" stroke="#1D1B20" stroke-width="0.813889"/>
<rect x="357.279" y="64.9609" width="16.24" height="16.24" stroke="#1D1B20" stroke-width="0.813889"/>
<rect x="373.52" y="64.9609" width="16.24" height="16.24" stroke="#1D1B20" stroke-width="0.813889"/>
<rect y="81.1992" width="16.24" height="16.24" stroke="#1D1B20" stroke-width="0.813889"/>
<rect x="16.2402" y="81.1992" width="16.24" height="16.24" stroke="#1D1B20" stroke-width="0.813889"/>
<rect x="32.4805" y="81.1992" width="16.24" height="16.24" stroke="#1D1B20" stroke-width="0.813889"/>
<rect x="48.7207" y="81.1992" width="16.24" height="16.24" stroke="#1D1B20" stroke-width="0.813889"/>
<rect x="64.9609" y="81.1992" width="16.24" height="16.24" stroke="#1D1B20" stroke-width="0.813889"/>
<rect x="81.1992" y="81.1992" width="16.24" height="16.24" stroke="#1D1B20" stroke-width="0.813889"/>
<rect x="97.4395" y="81.1992" width="16.24" height="16.24" stroke="#1D1B20" stroke-width="0.813889"/>
<rect x="113.68" y="81.1992" width="16.24" height="16.24" stroke="#1D1B20" stroke-width="0.813889"/>
<rect x="129.92" y="81.1992" width="16.24" height="16.24" stroke="#1D1B20" stroke-width="0.813889"/>
<rect x="146.16" y="81.1992" width="16.24" height="16.24" stroke="#1D1B20" stroke-width="0.813889"/>
<rect x="162.4" y="81.1992" width="16.24" height="16.24" stroke="#1D1B20" stroke-width="0.813889"/>
<rect x="178.641" y="81.1992" width="16.24" height="16.24" stroke="#1D1B20" stroke-width="0.813889"/>
<rect x="194.881" y="81.1992" width="16.24" height="16.24" stroke="#1D1B20" stroke-width="0.813889"/>
<rect x="211.119" y="81.1992" width="16.24" height="16.24" stroke="#1D1B20" stroke-width="0.813889"/>
<rect x="227.359" y="81.1992" width="16.24" height="16.24" stroke="#1D1B20" stroke-width="0.813889"/>
<rect x="243.6" y="81.1992" width="16.24" height="16.24" stroke="#1D1B20" stroke-width="0.813889"/>
<rect x="259.84" y="81.1992" width="16.24" height="16.24" stroke="#1D1B20" stroke-width="0.813889"/>
<rect x="276.08" y="81.1992" width="16.24" height="16.24" stroke="#1D1B20" stroke-width="0.813889"/>
<rect x="292.32" y="81.1992" width="16.24" height="16.24" stroke="#1D1B20" stroke-width="0.813889"/>
<rect x="308.561" y="81.1992" width="16.24" height="16.24" stroke="#1D1B20" stroke-width="0.813889"/>
<rect x="324.801" y="81.1992" width="16.24" height="16.24" stroke="#1D1B20" stroke-width="0.813889"/>
<rect x="341.039" y="81.1992" width="16.24" height="16.24" stroke="#1D1B20" stroke-width="0.813889"/>
<rect x="357.279" y="81.1992" width="16.24" height="16.24" stroke="#1D1B20" stroke-width="0.813889"/>
<rect x="373.52" y="81.1992" width="16.24" height="16.24" stroke="#1D1B20" stroke-width="0.813889"/>
<rect y="97.4395" width="16.24" height="16.24" stroke="#1D1B20" stroke-width="0.813889"/>
<rect x="16.2402" y="97.4395" width="16.24" height="16.24" stroke="#1D1B20" stroke-width="0.813889"/>
<rect x="32.4805" y="97.4395" width="16.24" height="16.24" stroke="#1D1B20" stroke-width="0.813889"/>
<rect x="48.7207" y="97.4395" width="16.24" height="16.24" stroke="#1D1B20" stroke-width="0.813889"/>
<rect x="64.9609" y="97.4395" width="16.24" height="16.24" stroke="#1D1B20" stroke-width="0.813889"/>
<rect x="81.1992" y="97.4395" width="16.24" height="16.24" stroke="#1D1B20" stroke-width="0.813889"/>
<rect x="97.4395" y="97.4395" width="16.24" height="16.24" stroke="#1D1B20" stroke-width="0.813889"/>
<rect x="113.68" y="97.4395" width="16.24" height="16.24" stroke="#1D1B20" stroke-width="0.813889"/>
<rect x="129.92" y="97.4395" width="16.24" height="16.24" stroke="#1D1B20" stroke-width="0.813889"/>
<rect x="146.16" y="97.4395" width="16.24" height="16.24" stroke="#1D1B20" stroke-width="0.813889"/>
<rect x="162.4" y="97.4395" width="16.24" height="16.24" stroke="#1D1B20" stroke-width="0.813889"/>
<rect x="178.641" y="97.4395" width="16.24" height="16.24" stroke="#1D1B20" stroke-width="0.813889"/>
<rect x="194.881" y="97.4395" width="16.24" height="16.24" stroke="#1D1B20" stroke-width="0.813889"/>
<rect x="211.119" y="97.4395" width="16.24" height="16.24" stroke="#1D1B20" stroke-width="0.813889"/>
<rect x="227.359" y="97.4395" width="16.24" height="16.24" stroke="#1D1B20" stroke-width="0.813889"/>
<rect x="243.6" y="97.4395" width="16.24" height="16.24" stroke="#1D1B20" stroke-width="0.813889"/>
<rect x="259.84" y="97.4395" width="16.24" height="16.24" stroke="#1D1B20" stroke-width="0.813889"/>
<rect x="276.08" y="97.4395" width="16.24" height="16.24" stroke="#1D1B20" stroke-width="0.813889"/>
<rect x="292.32" y="97.4395" width="16.24" height="16.24" stroke="#1D1B20" stroke-width="0.813889"/>
<rect x="308.561" y="97.4395" width="16.24" height="16.24" stroke="#1D1B20" stroke-width="0.813889"/>
<rect x="324.801" y="97.4395" width="16.24" height="16.24" stroke="#1D1B20" stroke-width="0.813889"/>
<rect x="341.039" y="97.4395" width="16.24" height="16.24" stroke="#1D1B20" stroke-width="0.813889"/>
<rect x="357.279" y="97.4395" width="16.24" height="16.24" stroke="#1D1B20" stroke-width="0.813889"/>
<rect x="373.52" y="97.4395" width="16.24" height="16.24" stroke="#1D1B20" stroke-width="0.813889"/>
<rect y="113.68" width="16.24" height="16.24" stroke="#1D1B20" stroke-width="0.813889"/>
<rect x="16.2402" y="113.68" width="16.24" height="16.24" stroke="#1D1B20" stroke-width="0.813889"/>
<rect x="32.4805" y="113.68" width="16.24" height="16.24" stroke="#1D1B20" stroke-width="0.813889"/>
<rect x="48.7207" y="113.68" width="16.24" height="16.24" stroke="#1D1B20" stroke-width="0.813889"/>
<rect x="64.9609" y="113.68" width="16.24" height="16.24" stroke="#1D1B20" stroke-width="0.813889"/>
<rect x="81.1992" y="113.68" width="16.24" height="16.24" stroke="#1D1B20" stroke-width="0.813889"/>
<rect x="97.4395" y="113.68" width="16.24" height="16.24" stroke="#1D1B20" stroke-width="0.813889"/>
<rect x="113.68" y="113.68" width="16.24" height="16.24" stroke="#1D1B20" stroke-width="0.813889"/>
<rect x="129.92" y="113.68" width="16.24" height="16.24" stroke="#1D1B20" stroke-width="0.813889"/>
<rect x="146.16" y="113.68" width="16.24" height="16.24" stroke="#1D1B20" stroke-width="0.813889"/>
<rect x="162.4" y="113.68" width="16.24" height="16.24" stroke="#1D1B20" stroke-width="0.813889"/>
<rect x="178.641" y="113.68" width="16.24" height="16.24" stroke="#1D1B20" stroke-width="0.813889"/>
<rect x="194.881" y="113.68" width="16.24" height="16.24" stroke="#1D1B20" stroke-width="0.813889"/>
<rect x="211.119" y="113.68" width="16.24" height="16.24" stroke="#1D1B20" stroke-width="0.813889"/>
<rect x="227.359" y="113.68" width="16.24" height="16.24" stroke="#1D1B20" stroke-width="0.813889"/>
<rect x="243.6" y="113.68" width="16.24" height="16.24" stroke="#1D1B20" stroke-width="0.813889"/>
<rect x="259.84" y="113.68" width="16.24" height="16.24" stroke="#1D1B20" stroke-width="0.813889"/>
<rect x="276.08" y="113.68" width="16.24" height="16.24" stroke="#1D1B20" stroke-width="0.813889"/>
<rect x="292.32" y="113.68" width="16.24" height="16.24" stroke="#1D1B20" stroke-width="0.813889"/>
<rect x="308.561" y="113.68" width="16.24" height="16.24" stroke="#1D1B20" stroke-width="0.813889"/>
<rect x="324.801" y="113.68" width="16.24" height="16.24" stroke="#1D1B20" stroke-width="0.813889"/>
<rect x="341.039" y="113.68" width="16.24" height="16.24" stroke="#1D1B20" stroke-width="0.813889"/>
<rect x="357.279" y="113.68" width="16.24" height="16.24" stroke="#1D1B20" stroke-width="0.813889"/>
<rect x="373.52" y="113.68" width="16.24" height="16.24" stroke="#1D1B20" stroke-width="0.813889"/>
<rect y="129.92" width="16.24" height="16.24" stroke="#1D1B20" stroke-width="0.813889"/>
<rect x="16.2402" y="129.92" width="16.24" height="16.24" stroke="#1D1B20" stroke-width="0.813889"/>
<rect x="32.4805" y="129.92" width="16.24" height="16.24" stroke="#1D1B20" stroke-width="0.813889"/>
<rect x="48.7207" y="129.92" width="16.24" height="16.24" stroke="#1D1B20" stroke-width="0.813889"/>
<rect x="64.9609" y="129.92" width="16.24" height="16.24" stroke="#1D1B20" stroke-width="0.813889"/>
<rect x="81.1992" y="129.92" width="16.24" height="16.24" stroke="#1D1B20" stroke-width="0.813889"/>
<rect x="97.4395" y="129.92" width="16.24" height="16.24" stroke="#1D1B20" stroke-width="0.813889"/>
<rect x="113.68" y="129.92" width="16.24" height="16.24" stroke="#1D1B20" stroke-width="0.813889"/>
<rect x="129.92" y="129.92" width="16.24" height="16.24" stroke="#1D1B20" stroke-width="0.813889"/>
<rect x="146.16" y="129.92" width="16.24" height="16.24" stroke="#1D1B20" stroke-width="0.813889"/>
<rect x="162.4" y="129.92" width="16.24" height="16.24" stroke="#1D1B20" stroke-width="0.813889"/>
<rect x="178.641" y="129.92" width="16.24" height="16.24" stroke="#1D1B20" stroke-width="0.813889"/>
<rect x="194.881" y="129.92" width="16.24" height="16.24" stroke="#1D1B20" stroke-width="0.813889"/>
<rect x="211.119" y="129.92" width="16.24" height="16.24" stroke="#1D1B20" stroke-width="0.813889"/>
<rect x="227.359" y="129.92" width="16.24" height="16.24" stroke="#1D1B20" stroke-width="0.813889"/>
<rect x="243.6" y="129.92" width="16.24" height="16.24" stroke="#1D1B20" stroke-width="0.813889"/>
<rect x="259.84" y="129.92" width="16.24" height="16.24" stroke="#1D1B20" stroke-width="0.813889"/>
<rect x="276.08" y="129.92" width="16.24" height="16.24" stroke="#1D1B20" stroke-width="0.813889"/>
<rect x="292.32" y="129.92" width="16.24" height="16.24" stroke="#1D1B20" stroke-width="0.813889"/>
<rect x="308.561" y="129.92" width="16.24" height="16.24" stroke="#1D1B20" stroke-width="0.813889"/>
<rect x="324.801" y="129.92" width="16.24" height="16.24" stroke="#1D1B20" stroke-width="0.813889"/>
<rect x="341.039" y="129.92" width="16.24" height="16.24" stroke="#1D1B20" stroke-width="0.813889"/>
<rect x="357.279" y="129.92" width="16.24" height="16.24" stroke="#1D1B20" stroke-width="0.813889"/>
<rect x="373.52" y="129.92" width="16.24" height="16.24" stroke="#1D1B20" stroke-width="0.813889"/>
<rect y="146.16" width="16.24" height="16.24" stroke="#1D1B20" stroke-width="0.813889"/>
<rect x="16.2402" y="146.16" width="16.24" height="16.24" stroke="#1D1B20" stroke-width="0.813889"/>
<rect x="32.4805" y="146.16" width="16.24" height="16.24" stroke="#1D1B20" stroke-width="0.813889"/>
<rect x="48.7207" y="146.16" width="16.24" height="16.24" stroke="#1D1B20" stroke-width="0.813889"/>
<rect x="64.9609" y="146.16" width="16.24" height="16.24" stroke="#1D1B20" stroke-width="0.813889"/>
<rect x="81.1992" y="146.16" width="16.24" height="16.24" stroke="#1D1B20" stroke-width="0.813889"/>
<rect x="97.4395" y="146.16" width="16.24" height="16.24" stroke="#1D1B20" stroke-width="0.813889"/>
<rect x="113.68" y="146.16" width="16.24" height="16.24" stroke="#1D1B20" stroke-width="0.813889"/>
<rect x="129.92" y="146.16" width="16.24" height="16.24" stroke="#1D1B20" stroke-width="0.813889"/>
<rect x="146.16" y="146.16" width="16.24" height="16.24" stroke="#1D1B20" stroke-width="0.813889"/>
<rect x="162.4" y="146.16" width="16.24" height="16.24" stroke="#1D1B20" stroke-width="0.813889"/>
<rect x="178.641" y="146.16" width="16.24" height="16.24" stroke="#1D1B20" stroke-width="0.813889"/>
<rect x="194.881" y="146.16" width="16.24" height="16.24" stroke="#1D1B20" stroke-width="0.813889"/>
<rect x="211.119" y="146.16" width="16.24" height="16.24" stroke="#1D1B20" stroke-width="0.813889"/>
<rect x="227.359" y="146.16" width="16.24" height="16.24" stroke="#1D1B20" stroke-width="0.813889"/>
<rect x="243.6" y="146.16" width="16.24" height="16.24" stroke="#1D1B20" stroke-width="0.813889"/>
<rect x="259.84" y="146.16" width="16.24" height="16.24" stroke="#1D1B20" stroke-width="0.813889"/>
<rect x="276.08" y="146.16" width="16.24" height="16.24" stroke="#1D1B20" stroke-width="0.813889"/>
<rect x="292.32" y="146.16" width="16.24" height="16.24" stroke="#1D1B20" stroke-width="0.813889"/>
<rect x="308.561" y="146.16" width="16.24" height="16.24" stroke="#1D1B20" stroke-width="0.813889"/>
<rect x="324.801" y="146.16" width="16.24" height="16.24" stroke="#1D1B20" stroke-width="0.813889"/>
<rect x="341.039" y="146.16" width="16.24" height="16.24" stroke="#1D1B20" stroke-width="0.813889"/>
<rect x="357.279" y="146.16" width="16.24" height="16.24" stroke="#1D1B20" stroke-width="0.813889"/>
<rect x="373.52" y="146.16" width="16.24" height="16.24" stroke="#1D1B20" stroke-width="0.813889"/>
<rect y="162.4" width="16.24" height="16.24" stroke="#1D1B20" stroke-width="0.813889"/>
<rect x="16.2402" y="162.4" width="16.24" height="16.24" stroke="#1D1B20" stroke-width="0.813889"/>
<rect x="32.4805" y="162.4" width="16.24" height="16.24" stroke="#1D1B20" stroke-width="0.813889"/>
<rect x="48.7207" y="162.4" width="16.24" height="16.24" stroke="#1D1B20" stroke-width="0.813889"/>
<rect x="64.9609" y="162.4" width="16.24" height="16.24" stroke="#1D1B20" stroke-width="0.813889"/>
<rect x="81.1992" y="162.4" width="16.24" height="16.24" stroke="#1D1B20" stroke-width="0.813889"/>
<rect x="97.4395" y="162.4" width="16.24" height="16.24" stroke="#1D1B20" stroke-width="0.813889"/>
<rect x="113.68" y="162.4" width="16.24" height="16.24" stroke="#1D1B20" stroke-width="0.813889"/>
<rect x="129.92" y="162.4" width="16.24" height="16.24" stroke="#1D1B20" stroke-width="0.813889"/>
<rect x="146.16" y="162.4" width="16.24" height="16.24" stroke="#1D1B20" stroke-width="0.813889"/>
<rect x="162.4" y="162.4" width="16.24" height="16.24" stroke="#1D1B20" stroke-width="0.813889"/>
<rect x="178.641" y="162.4" width="16.24" height="16.24" stroke="#1D1B20" stroke-width="0.813889"/>
<rect x="194.881" y="162.4" width="16.24" height="16.24" stroke="#1D1B20" stroke-width="0.813889"/>
<rect x="211.119" y="162.4" width="16.24" height="16.24" stroke="#1D1B20" stroke-width="0.813889"/>
<rect x="227.359" y="162.4" width="16.24" height="16.24" stroke="#1D1B20" stroke-width="0.813889"/>
<rect x="243.6" y="162.4" width="16.24" height="16.24" stroke="#1D1B20" stroke-width="0.813889"/>
<rect x="259.84" y="162.4" width="16.24" height="16.24" stroke="#1D1B20" stroke-width="0.813889"/>
<rect x="276.08" y="162.4" width="16.24" height="16.24" stroke="#1D1B20" stroke-width="0.813889"/>
<rect x="292.32" y="162.4" width="16.24" height="16.24" stroke="#1D1B20" stroke-width="0.813889"/>
<rect x="308.561" y="162.4" width="16.24" height="16.24" stroke="#1D1B20" stroke-width="0.813889"/>
<rect x="324.801" y="162.4" width="16.24" height="16.24" stroke="#1D1B20" stroke-width="0.813889"/>
<rect x="341.039" y="162.4" width="16.24" height="16.24" stroke="#1D1B20" stroke-width="0.813889"/>
<rect x="357.279" y="162.4" width="16.24" height="16.24" stroke="#1D1B20" stroke-width="0.813889"/>
<rect x="373.52" y="162.4" width="16.24" height="16.24" stroke="#1D1B20" stroke-width="0.813889"/>
<rect y="178.641" width="16.24" height="16.24" stroke="#1D1B20" stroke-width="0.813889"/>
<rect x="16.2402" y="178.641" width="16.24" height="16.24" stroke="#1D1B20" stroke-width="0.813889"/>
<rect x="32.4805" y="178.641" width="16.24" height="16.24" stroke="#1D1B20" stroke-width="0.813889"/>
<rect x="48.7207" y="178.641" width="16.24" height="16.24" stroke="#1D1B20" stroke-width="0.813889"/>
<rect x="64.9609" y="178.641" width="16.24" height="16.24" stroke="#1D1B20" stroke-width="0.813889"/>
<rect x="81.1992" y="178.641" width="16.24" height="16.24" stroke="#1D1B20" stroke-width="0.813889"/>
<rect x="97.4395" y="178.641" width="16.24" height="16.24" stroke="#1D1B20" stroke-width="0.813889"/>
<rect x="113.68" y="178.641" width="16.24" height="16.24" stroke="#1D1B20" stroke-width="0.813889"/>
<rect x="129.92" y="178.641" width="16.24" height="16.24" stroke="#1D1B20" stroke-width="0.813889"/>
<rect x="146.16" y="178.641" width="16.24" height="16.24" stroke="#1D1B20" stroke-width="0.813889"/>
<rect x="162.4" y="178.641" width="16.24" height="16.24" stroke="#1D1B20" stroke-width="0.813889"/>
<rect x="178.641" y="178.641" width="16.24" height="16.24" stroke="#1D1B20" stroke-width="0.813889"/>
<rect x="194.881" y="178.641" width="16.24" height="16.24" stroke="#1D1B20" stroke-width="0.813889"/>
<rect x="211.119" y="178.641" width="16.24" height="16.24" stroke="#1D1B20" stroke-width="0.813889"/>
<rect x="227.359" y="178.641" width="16.24" height="16.24" stroke="#1D1B20" stroke-width="0.813889"/>
<rect x="243.6" y="178.641" width="16.24" height="16.24" stroke="#1D1B20" stroke-width="0.813889"/>
<rect x="259.84" y="178.641" width="16.24" height="16.24" stroke="#1D1B20" stroke-width="0.813889"/>
<rect x="276.08" y="178.641" width="16.24" height="16.24" stroke="#1D1B20" stroke-width="0.813889"/>
<rect x="292.32" y="178.641" width="16.24" height="16.24" stroke="#1D1B20" stroke-width="0.813889"/>
<rect x="308.561" y="178.641" width="16.24" height="16.24" stroke="#1D1B20" stroke-width="0.813889"/>
<rect x="324.801" y="178.641" width="16.24" height="16.24" stroke="#1D1B20" stroke-width="0.813889"/>
<rect x="341.039" y="178.641" width="16.24" height="16.24" stroke="#1D1B20" stroke-width="0.813889"/>
<rect x="357.279" y="178.641" width="16.24" height="16.24" stroke="#1D1B20" stroke-width="0.813889"/>
<rect x="373.52" y="178.641" width="16.24" height="16.24" stroke="#1D1B20" stroke-width="0.813889"/>
<rect y="194.881" width="16.24" height="16.24" stroke="#1D1B20" stroke-width="0.813889"/>
<rect x="16.2402" y="194.881" width="16.24" height="16.24" stroke="#1D1B20" stroke-width="0.813889"/>
<rect x="32.4805" y="194.881" width="16.24" height="16.24" stroke="#1D1B20" stroke-width="0.813889"/>
<rect x="48.7207" y="194.881" width="16.24" height="16.24" stroke="#1D1B20" stroke-width="0.813889"/>
<rect x="64.9609" y="194.881" width="16.24" height="16.24" stroke="#1D1B20" stroke-width="0.813889"/>
<rect x="81.1992" y="194.881" width="16.24" height="16.24" stroke="#1D1B20" stroke-width="0.813889"/>
<rect x="97.4395" y="194.881" width="16.24" height="16.24" stroke="#1D1B20" stroke-width="0.813889"/>
<rect x="113.68" y="194.881" width="16.24" height="16.24" stroke="#1D1B20" stroke-width="0.813889"/>
<rect x="129.92" y="194.881" width="16.24" height="16.24" stroke="#1D1B20" stroke-width="0.813889"/>
<rect x="146.16" y="194.881" width="16.24" height="16.24" stroke="#1D1B20" stroke-width="0.813889"/>
<rect x="162.4" y="194.881" width="16.24" height="16.24" stroke="#1D1B20" stroke-width="0.813889"/>
<rect x="178.641" y="194.881" width="16.24" height="16.24" stroke="#1D1B20" stroke-width="0.813889"/>
<rect x="194.881" y="194.881" width="16.24" height="16.24" stroke="#1D1B20" stroke-width="0.813889"/>
<rect x="211.119" y="194.881" width="16.24" height="16.24" stroke="#1D1B20" stroke-width="0.813889"/>
<rect x="227.359" y="194.881" width="16.24" height="16.24" stroke="#1D1B20" stroke-width="0.813889"/>
<rect x="243.6" y="194.881" width="16.24" height="16.24" stroke="#1D1B20" stroke-width="0.813889"/>
<rect x="259.84" y="194.881" width="16.24" height="16.24" stroke="#1D1B20" stroke-width="0.813889"/>
<rect x="276.08" y="194.881" width="16.24" height="16.24" stroke="#1D1B20" stroke-width="0.813889"/>
<rect x="292.32" y="194.881" width="16.24" height="16.24" stroke="#1D1B20" stroke-width="0.813889"/>
<rect x="308.561" y="194.881" width="16.24" height="16.24" stroke="#1D1B20" stroke-width="0.813889"/>
<rect x="324.801" y="194.881" width="16.24" height="16.24" stroke="#1D1B20" stroke-width="0.813889"/>
<rect x="341.039" y="194.881" width="16.24" height="16.24" stroke="#1D1B20" stroke-width="0.813889"/>
<rect x="357.279" y="194.881" width="16.24" height="16.24" stroke="#1D1B20" stroke-width="0.813889"/>
<rect x="373.52" y="194.881" width="16.24" height="16.24" stroke="#1D1B20" stroke-width="0.813889"/>
<rect y="211.119" width="16.24" height="16.24" stroke="#1D1B20" stroke-width="0.813889"/>
<rect x="16.2402" y="211.119" width="16.24" height="16.24" stroke="#1D1B20" stroke-width="0.813889"/>
<rect x="32.4805" y="211.119" width="16.24" height="16.24" stroke="#1D1B20" stroke-width="0.813889"/>
<rect x="48.7207" y="211.119" width="16.24" height="16.24" stroke="#1D1B20" stroke-width="0.813889"/>
<rect x="64.9609" y="211.119" width="16.24" height="16.24" stroke="#1D1B20" stroke-width="0.813889"/>
<rect x="81.1992" y="211.119" width="16.24" height="16.24" stroke="#1D1B20" stroke-width="0.813889"/>
<rect x="97.4395" y="211.119" width="16.24" height="16.24" stroke="#1D1B20" stroke-width="0.813889"/>
<rect x="113.68" y="211.119" width="16.24" height="16.24" stroke="#1D1B20" stroke-width="0.813889"/>
<rect x="129.92" y="211.119" width="16.24" height="16.24" stroke="#1D1B20" stroke-width="0.813889"/>
<rect x="146.16" y="211.119" width="16.24" height="16.24" stroke="#1D1B20" stroke-width="0.813889"/>
<rect x="162.4" y="211.119" width="16.24" height="16.24" stroke="#1D1B20" stroke-width="0.813889"/>
<rect x="178.641" y="211.119" width="16.24" height="16.24" stroke="#1D1B20" stroke-width="0.813889"/>
<rect x="194.881" y="211.119" width="16.24" height="16.24" stroke="#1D1B20" stroke-width="0.813889"/>
<rect x="211.119" y="211.119" width="16.24" height="16.24" stroke="#1D1B20" stroke-width="0.813889"/>
<rect x="227.359" y="211.119" width="16.24" height="16.24" stroke="#1D1B20" stroke-width="0.813889"/>
<rect x="243.6" y="211.119" width="16.24" height="16.24" stroke="#1D1B20" stroke-width="0.813889"/>
<rect x="259.84" y="211.119" width="16.24" height="16.24" stroke="#1D1B20" stroke-width="0.813889"/>
<rect x="276.08" y="211.119" width="16.24" height="16.24" stroke="#1D1B20" stroke-width="0.813889"/>
<rect x="292.32" y="211.119" width="16.24" height="16.24" stroke="#1D1B20" stroke-width="0.813889"/>
<rect x="308.561" y="211.119" width="16.24" height="16.24" stroke="#1D1B20" stroke-width="0.813889"/>
<rect x="324.801" y="211.119" width="16.24" height="16.24" stroke="#1D1B20" stroke-width="0.813889"/>
<rect x="341.039" y="211.119" width="16.24" height="16.24" stroke="#1D1B20" stroke-width="0.813889"/>
<rect x="357.279" y="211.119" width="16.24" height="16.24" stroke="#1D1B20" stroke-width="0.813889"/>
<rect x="373.52" y="211.119" width="16.24" height="16.24" stroke="#1D1B20" stroke-width="0.813889"/>
<rect y="227.359" width="16.24" height="16.24" stroke="#1D1B20" stroke-width="0.813889"/>
<rect x="16.2402" y="227.359" width="16.24" height="16.24" stroke="#1D1B20" stroke-width="0.813889"/>
<rect x="32.4805" y="227.359" width="16.24" height="16.24" stroke="#1D1B20" stroke-width="0.813889"/>
<rect x="48.7207" y="227.359" width="16.24" height="16.24" stroke="#1D1B20" stroke-width="0.813889"/>
<rect x="64.9609" y="227.359" width="16.24" height="16.24" stroke="#1D1B20" stroke-width="0.813889"/>
<rect x="81.1992" y="227.359" width="16.24" height="16.24" stroke="#1D1B20" stroke-width="0.813889"/>
<rect x="97.4395" y="227.359" width="16.24" height="16.24" stroke="#1D1B20" stroke-width="0.813889"/>
<rect x="113.68" y="227.359" width="16.24" height="16.24" stroke="#1D1B20" stroke-width="0.813889"/>
<rect x="129.92" y="227.359" width="16.24" height="16.24" stroke="#1D1B20" stroke-width="0.813889"/>
<rect x="146.16" y="227.359" width="16.24" height="16.24" stroke="#1D1B20" stroke-width="0.813889"/>
<rect x="162.4" y="227.359" width="16.24" height="16.24" stroke="#1D1B20" stroke-width="0.813889"/>
<rect x="178.641" y="227.359" width="16.24" height="16.24" stroke="#1D1B20" stroke-width="0.813889"/>
<rect x="194.881" y="227.359" width="16.24" height="16.24" stroke="#1D1B20" stroke-width="0.813889"/>
<rect x="211.119" y="227.359" width="16.24" height="16.24" stroke="#1D1B20" stroke-width="0.813889"/>
<rect x="227.359" y="227.359" width="16.24" height="16.24" stroke="#1D1B20" stroke-width="0.813889"/>
<rect x="243.6" y="227.359" width="16.24" height="16.24" stroke="#1D1B20" stroke-width="0.813889"/>
<rect x="259.84" y="227.359" width="16.24" height="16.24" stroke="#1D1B20" stroke-width="0.813889"/>
<rect x="276.08" y="227.359" width="16.24" height="16.24" stroke="#1D1B20" stroke-width="0.813889"/>
<rect x="292.32" y="227.359" width="16.24" height="16.24" stroke="#1D1B20" stroke-width="0.813889"/>
<rect x="308.561" y="227.359" width="16.24" height="16.24" stroke="#1D1B20" stroke-width="0.813889"/>
<rect x="324.801" y="227.359" width="16.24" height="16.24" stroke="#1D1B20" stroke-width="0.813889"/>
<rect x="341.039" y="227.359" width="16.24" height="16.24" stroke="#1D1B20" stroke-width="0.813889"/>
<rect x="357.279" y="227.359" width="16.24" height="16.24" stroke="#1D1B20" stroke-width="0.813889"/>
<rect x="373.52" y="227.359" width="16.24" height="16.24" stroke="#1D1B20" stroke-width="0.813889"/>
<rect y="243.6" width="16.24" height="16.24" stroke="#1D1B20" stroke-width="0.813889"/>
<rect x="16.2402" y="243.6" width="16.24" height="16.24" stroke="#1D1B20" stroke-width="0.813889"/>
<rect x="32.4805" y="243.6" width="16.24" height="16.24" stroke="#1D1B20" stroke-width="0.813889"/>
<rect x="48.7207" y="243.6" width="16.24" height="16.24" stroke="#1D1B20" stroke-width="0.813889"/>
<rect x="64.9609" y="243.6" width="16.24" height="16.24" stroke="#1D1B20" stroke-width="0.813889"/>
<rect x="81.1992" y="243.6" width="16.24" height="16.24" stroke="#1D1B20" stroke-width="0.813889"/>
<rect x="97.4395" y="243.6" width="16.24" height="16.24" stroke="#1D1B20" stroke-width="0.813889"/>
<rect x="113.68" y="243.6" width="16.24" height="16.24" stroke="#1D1B20" stroke-width="0.813889"/>
<rect x="129.92" y="243.6" width="16.24" height="16.24" stroke="#1D1B20" stroke-width="0.813889"/>
<rect x="146.16" y="243.6" width="16.24" height="16.24" stroke="#1D1B20" stroke-width="0.813889"/>
<rect x="162.4" y="243.6" width="16.24" height="16.24" stroke="#1D1B20" stroke-width="0.813889"/>
<rect x="178.641" y="243.6" width="16.24" height="16.24" stroke="#1D1B20" stroke-width="0.813889"/>
<rect x="194.881" y="243.6" width="16.24" height="16.24" stroke="#1D1B20" stroke-width="0.813889"/>
<rect x="211.119" y="243.6" width="16.24" height="16.24" stroke="#1D1B20" stroke-width="0.813889"/>
<rect x="227.359" y="243.6" width="16.24" height="16.24" stroke="#1D1B20" stroke-width="0.813889"/>
<rect x="243.6" y="243.6" width="16.24" height="16.24" stroke="#1D1B20" stroke-width="0.813889"/>
<rect x="259.84" y="243.6" width="16.24" height="16.24" stroke="#1D1B20" stroke-width="0.813889"/>
<rect x="276.08" y="243.6" width="16.24" height="16.24" stroke="#1D1B20" stroke-width="0.813889"/>
<rect x="292.32" y="243.6" width="16.24" height="16.24" stroke="#1D1B20" stroke-width="0.813889"/>
<rect x="308.561" y="243.6" width="16.24" height="16.24" stroke="#1D1B20" stroke-width="0.813889"/>
<rect x="324.801" y="243.6" width="16.24" height="16.24" stroke="#1D1B20" stroke-width="0.813889"/>
<rect x="341.039" y="243.6" width="16.24" height="16.24" stroke="#1D1B20" stroke-width="0.813889"/>
<rect x="357.279" y="243.6" width="16.24" height="16.24" stroke="#1D1B20" stroke-width="0.813889"/>
<rect x="373.52" y="243.6" width="16.24" height="16.24" stroke="#1D1B20" stroke-width="0.813889"/>
<rect y="259.84" width="16.24" height="16.24" stroke="#1D1B20" stroke-width="0.813889"/>
<rect x="16.2402" y="259.84" width="16.24" height="16.24" stroke="#1D1B20" stroke-width="0.813889"/>
<rect x="32.4805" y="259.84" width="16.24" height="16.24" stroke="#1D1B20" stroke-width="0.813889"/>
<rect x="48.7207" y="259.84" width="16.24" height="16.24" stroke="#1D1B20" stroke-width="0.813889"/>
<rect x="64.9609" y="259.84" width="16.24" height="16.24" stroke="#1D1B20" stroke-width="0.813889"/>
<rect x="81.1992" y="259.84" width="16.24" height="16.24" stroke="#1D1B20" stroke-width="0.813889"/>
<rect x="97.4395" y="259.84" width="16.24" height="16.24" stroke="#1D1B20" stroke-width="0.813889"/>
<rect x="113.68" y="259.84" width="16.24" height="16.24" stroke="#1D1B20" stroke-width="0.813889"/>
<rect x="129.92" y="259.84" width="16.24" height="16.24" stroke="#1D1B20" stroke-width="0.813889"/>
<rect x="146.16" y="259.84" width="16.24" height="16.24" stroke="#1D1B20" stroke-width="0.813889"/>
<rect x="162.4" y="259.84" width="16.24" height="16.24" stroke="#1D1B20" stroke-width="0.813889"/>
<rect x="178.641" y="259.84" width="16.24" height="16.24" stroke="#1D1B20" stroke-width="0.813889"/>
<rect x="194.881" y="259.84" width="16.24" height="16.24" stroke="#1D1B20" stroke-width="0.813889"/>
<rect x="211.119" y="259.84" width="16.24" height="16.24" stroke="#1D1B20" stroke-width="0.813889"/>
<rect x="227.359" y="259.84" width="16.24" height="16.24" stroke="#1D1B20" stroke-width="0.813889"/>
<rect x="243.6" y="259.84" width="16.24" height="16.24" stroke="#1D1B20" stroke-width="0.813889"/>
<rect x="259.84" y="259.84" width="16.24" height="16.24" stroke="#1D1B20" stroke-width="0.813889"/>
<rect x="276.08" y="259.84" width="16.24" height="16.24" stroke="#1D1B20" stroke-width="0.813889"/>
<rect x="292.32" y="259.84" width="16.24" height="16.24" stroke="#1D1B20" stroke-width="0.813889"/>
<rect x="308.561" y="259.84" width="16.24" height="16.24" stroke="#1D1B20" stroke-width="0.813889"/>
<rect x="324.801" y="259.84" width="16.24" height="16.24" stroke="#1D1B20" stroke-width="0.813889"/>
<rect x="341.039" y="259.84" width="16.24" height="16.24" stroke="#1D1B20" stroke-width="0.813889"/>
<rect x="357.279" y="259.84" width="16.24" height="16.24" stroke="#1D1B20" stroke-width="0.813889"/>
<rect x="373.52" y="259.84" width="16.24" height="16.24" stroke="#1D1B20" stroke-width="0.813889"/>
<rect y="276.08" width="16.24" height="16.24" stroke="#1D1B20" stroke-width="0.813889"/>
<rect x="16.2402" y="276.08" width="16.24" height="16.24" stroke="#1D1B20" stroke-width="0.813889"/>
<rect x="32.4805" y="276.08" width="16.24" height="16.24" stroke="#1D1B20" stroke-width="0.813889"/>
<rect x="48.7207" y="276.08" width="16.24" height="16.24" stroke="#1D1B20" stroke-width="0.813889"/>
<rect x="64.9609" y="276.08" width="16.24" height="16.24" stroke="#1D1B20" stroke-width="0.813889"/>
<rect x="81.1992" y="276.08" width="16.24" height="16.24" stroke="#1D1B20" stroke-width="0.813889"/>
<rect x="97.4395" y="276.08" width="16.24" height="16.24" stroke="#1D1B20" stroke-width="0.813889"/>
<rect x="113.68" y="276.08" width="16.24" height="16.24" stroke="#1D1B20" stroke-width="0.813889"/>
<rect x="129.92" y="276.08" width="16.24" height="16.24" stroke="#1D1B20" stroke-width="0.813889"/>
<rect x="146.16" y="276.08" width="16.24" height="16.24" stroke="#1D1B20" stroke-width="0.813889"/>
<rect x="162.4" y="276.08" width="16.24" height="16.24" stroke="#1D1B20" stroke-width="0.813889"/>
<rect x="178.641" y="276.08" width="16.24" height="16.24" stroke="#1D1B20" stroke-width="0.813889"/>
<rect x="194.881" y="276.08" width="16.24" height="16.24" stroke="#1D1B20" stroke-width="0.813889"/>
<rect x="211.119" y="276.08" width="16.24" height="16.24" stroke="#1D1B20" stroke-width="0.813889"/>
<rect x="227.359" y="276.08" width="16.24" height="16.24" stroke="#1D1B20" stroke-width="0.813889"/>
<rect x="243.6" y="276.08" width="16.24" height="16.24" stroke="#1D1B20" stroke-width="0.813889"/>
<rect x="259.84" y="276.08" width="16.24" height="16.24" stroke="#1D1B20" stroke-width="0.813889"/>
<rect x="276.08" y="276.08" width="16.24" height="16.24" stroke="#1D1B20" stroke-width="0.813889"/>
<rect x="292.32" y="276.08" width="16.24" height="16.24" stroke="#1D1B20" stroke-width="0.813889"/>
<rect x="308.561" y="276.08" width="16.24" height="16.24" stroke="#1D1B20" stroke-width="0.813889"/>
<rect x="324.801" y="276.08" width="16.24" height="16.24" stroke="#1D1B20" stroke-width="0.813889"/>
<rect x="341.039" y="276.08" width="16.24" height="16.24" stroke="#1D1B20" stroke-width="0.813889"/>
<rect x="357.279" y="276.08" width="16.24" height="16.24" stroke="#1D1B20" stroke-width="0.813889"/>
<rect x="373.52" y="276.08" width="16.24" height="16.24" stroke="#1D1B20" stroke-width="0.813889"/>
</g>
<path d="M27.9998 260.439C30.4691 256.802 37.6401 249.711 46.5699 250.44" stroke="white" stroke-width="5" stroke-linecap="round"/>
<path d="M83.9998 174.439C86.4691 170.802 93.6401 163.711 102.57 164.44" stroke="white" stroke-width="5" stroke-linecap="round"/>
<path d="M363.999 150.695C366.332 146.97 374.221 137.886 380.969 135.724" stroke="#FF9900" stroke-width="5" stroke-linecap="round"/>
<path d="M195.999 279.339C202.011 280.06 217.959 284.562 224.614 291.702" stroke="#FF9900" stroke-width="5" stroke-linecap="round"/>
<circle cx="174" cy="143" r="4" fill="#FAFF00"/>
<circle cx="294" cy="114" r="4" fill="#FAFF00"/>
<circle cx="53" cy="195" r="4" fill="#FAFF00"/>
<path d="M353 292C355.937 287 364.848 277 377 277" stroke="#FAFF00" stroke-width="5" stroke-linecap="round"/>
<path d="M-5.9992 86.9776C-0.235968 86.3377 13.1087 87.4917 20.3817 97.2268" stroke="white" stroke-width="5" stroke-linecap="round"/>
<path d="M313.055 117.787C313.692 115.014 315.308 112.237 317.966 110.686C321.505 108.62 324.852 108.421 328.432 109.749C332.623 111.302 332.913 117.694 327.653 117.833C322.257 117.975 321.081 114.44 323.605 110.165C327.22 104.039 331.826 101.088 338.615 101.009" stroke="white" stroke-width="5" stroke-linecap="round"/>
<path d="M0.0139619 230.815C2.69765 229.871 5.90782 229.752 8.6406 231.169C12.2779 233.055 14.2354 235.777 15.0279 239.513C15.9555 243.885 10.7091 247.548 7.77948 243.176C4.77499 238.693 7.13333 235.808 12.0954 235.655C19.2051 235.436 24.1619 237.75 27.8575 243.445" stroke="#FF9900" stroke-width="5" stroke-linecap="round"/>
<circle cx="113" cy="276" r="4" fill="#FAFF00"/>
<circle cx="227" cy="239" r="4" fill="white"/>
<circle cx="130" cy="101" r="4" fill="#FF9900"/>
<circle cx="302" cy="203" r="4" fill="#FF9900"/>
<circle cx="41" cy="102" r="4" fill="#FAFF00"/>
</g>
<defs>
<clipPath id="clip0_537_13839">
<rect width="390" height="292" fill="white"/>
</clipPath>
</defs>
</svg>
