<svg width="167" height="30" viewBox="0 0 167 30" fill="none" xmlns="http://www.w3.org/2000/svg">
<g id="Group 140">
<path id="Vector" d="M15.3893 1.19147C17.0585 1.19147 17.6379 2.5147 17.6379 3.64519C17.6379 4.71837 17.0266 6.0364 15.3893 6.0364H7.22952C6.6182 6.0364 6.33115 6.2552 6.33115 6.79179V10.2874C6.33115 10.8865 6.6182 11.0741 7.22952 11.0741H16.612C18.2811 11.0741 18.8924 12.3661 18.8924 13.434C18.8924 14.5697 18.2811 15.8565 16.612 15.8565H4.56098C0.994059 15.8669 0 14.7312 0 11.4909V5.57274C0 2.32716 0.994059 1.19147 4.56098 1.19147H15.3893ZM7.67605 17.5965H21.2686C25.6701 17.5965 27.9187 20.3055 27.9187 23.7699C27.9187 27.2343 25.6701 29.9433 21.2686 29.9433H7.67605C3.21076 29.9433 1.02595 27.1718 1.02595 23.7699C1.02595 20.368 3.21076 17.5965 7.67605 17.5965ZM9.37712 25.5307H19.5622C20.9762 25.5307 21.3962 24.5565 21.3962 23.7699C21.3962 22.9832 20.9762 22.009 19.5622 22.009H9.37712C7.96311 22.009 7.54316 22.9832 7.54316 23.7699C7.54316 24.5565 7.96311 25.5307 9.37712 25.5307ZM21.0454 3.39513C21.0454 1.34775 22.5232 0.279785 24.2242 0.279785C25.9253 0.279785 27.4031 1.38422 27.4031 3.39513V5.97909H28.3971C30.3587 5.97909 30.9328 7.42736 30.9328 8.68808C30.9328 9.94881 30.3215 11.3971 28.3971 11.3971H27.4031V16.8463H21.04V3.39513H21.0454Z" fill="white"/>
<path id="Vector_2" d="M44.1465 6.32292V6.92203C44.1465 7.42736 44.1146 7.92748 44.0508 8.40156C48.9998 8.55784 51.3441 11.0793 51.2484 16.6171H45.2415C45.4329 14.1634 44.2156 12.7776 42.2859 12.9027C40.4201 15.4554 37.3688 16.8411 34.3813 16.9349C32.8078 16.9974 31.4895 16.0545 31.4257 14.6375C31.3619 13.1579 32.1008 12.2462 33.3872 12.0222C36.3109 11.5482 38.012 9.56851 38.012 6.92203V6.32292H33.9932C32.4835 6.32292 31.649 4.93717 31.649 3.80148C31.649 2.66578 32.356 1.24877 33.9932 1.24877H48.6755C50.3128 1.24877 51.0198 2.66578 51.0198 3.80148C51.0198 4.93717 50.1852 6.32292 48.6755 6.32292H44.1465ZM39.745 29.9381C35.2797 29.9381 33.1587 27.3853 33.1587 23.9887C33.1587 20.592 35.2797 17.9768 39.745 17.9768H53.4651C57.8666 17.9768 60.0514 20.5608 60.0514 23.9887C60.0514 27.4166 57.8666 29.9381 53.4651 29.9381H39.745ZM51.7587 25.562C53.1727 25.562 53.5236 24.6816 53.5236 23.9887C53.5236 23.2958 53.1674 22.4779 51.7587 22.4779H41.446C40.032 22.4779 39.6812 23.2958 39.6812 23.9887C39.6812 24.6816 40.0373 25.562 41.446 25.562H51.7587ZM53.1727 3.39513C53.1727 1.34775 54.6505 0.279785 56.3516 0.279785C58.0527 0.279785 59.5305 1.38422 59.5305 3.39513V5.84885H60.5245C62.4861 5.84885 63.0602 7.29712 63.0602 8.55784C63.0602 9.81857 62.4489 11.2668 60.5245 11.2668H59.5305V17.0287H53.1674V3.39513H53.1727Z" fill="white"/>
<path id="Vector_3" d="M84.2781 14.7932V13.3762C84.2781 11.3288 85.8197 10.5734 87.5208 10.5734C89.2218 10.5734 90.7634 11.3601 90.7634 13.3762V14.7932H99.8907C101.725 14.7932 102.394 16.1164 102.394 17.2782C102.394 18.4399 101.687 19.7319 99.8907 19.7319H74.8319C73.0351 19.7319 72.3281 18.4712 72.3281 17.2782C72.3281 16.0852 73.0032 14.7932 74.8319 14.7932H84.2781ZM90.2212 3.89991C95.3297 3.99368 99.7312 6.41615 101.496 12.652H95.0054C93.4639 9.72424 90.572 8.24472 87.1965 8.58855C84.2728 11.1413 79.8075 12.8083 75.8897 12.7458C73.992 12.7146 73.0617 11.4226 73.0936 10.1618C73.1255 8.86987 74.1196 7.60915 76.0492 7.54663C79.2281 7.4216 83.0555 5.15542 83.7944 2.57146C84.3419 0.680373 85.8516 -0.137534 87.5845 0.0187539C89.2856 0.175042 90.5083 1.05546 90.3488 3.10284C90.3169 3.38416 90.285 3.63943 90.2212 3.88949V3.89991ZM73.9335 25.2801V23.613C73.9335 21.4719 75.4751 20.654 77.2772 20.654C79.0792 20.654 80.5198 21.5032 80.5198 23.613V24.3997C80.5198 24.9363 80.6155 25.0301 81.2268 25.0301H98.7052C100.667 25.0301 101.406 26.1657 101.406 27.4213C101.406 28.6768 100.635 29.8437 98.7052 29.8437H78.5264C74.8957 29.8437 73.9335 28.6768 73.9335 25.2801Z" fill="white"/>
<path id="Vector_4" d="M109.983 17.1571C106.098 17.1571 105.391 16.0214 105.391 12.3695V6.07107C105.391 2.41914 106.098 1.28345 109.983 1.28345H118.85C122.736 1.28345 123.443 2.41914 123.443 6.07107V17.1519H109.983V17.1571ZM111.525 29.8477C107.926 29.8477 106.964 28.6182 106.964 25.2528V22.0437C106.964 19.9026 108.474 18.9284 110.276 18.9284C112.078 18.9284 113.487 19.9338 113.487 22.0437V24.1849C113.487 24.8777 113.646 24.9715 114.353 24.9715H131.8C133.761 24.9715 134.5 26.1385 134.5 27.394C134.5 28.6495 133.729 29.8477 131.8 29.8477H111.525ZM112.264 12.531H117.341V6.70664C117.341 6.10754 117.181 5.91999 116.538 5.91999H112.264C111.621 5.91999 111.493 6.10754 111.493 6.70664V11.7131C111.493 12.3747 111.621 12.531 112.264 12.531ZM127.17 3.39855C127.17 1.35117 128.711 0.283203 130.412 0.283203C132.113 0.283203 133.655 1.38764 133.655 3.39855V22.5438H127.164V3.39334L127.17 3.39855Z" fill="white"/>
<path id="Vector_5" d="M154.907 23.2641V30.0002H148.352V23.2641H139.294C137.365 23.2641 136.594 22.0034 136.594 20.7114C136.594 19.4195 137.333 18.1275 139.294 18.1275H163.97C165.932 18.1275 166.671 19.4507 166.671 20.7114C166.671 21.9722 165.9 23.2641 163.97 23.2641H154.912H154.907ZM154.519 5.62963C160.015 5.69215 165.475 9.15653 166.022 16.8407H159.532C158.888 12.9387 155.965 10.5735 152.206 10.6673C149.315 14.4755 144.493 16.9345 140.092 16.9345C138.518 16.9345 137.232 16.0228 137.104 14.4807C136.976 12.97 137.843 11.7405 139.48 11.4592C143.69 10.735 147.512 7.77599 148.188 3.24363C148.475 1.25877 149.984 0.284578 151.786 0.409608C153.652 0.565896 154.838 1.76411 154.774 3.74896C154.742 4.41058 154.646 5.00969 154.519 5.64005V5.62963Z" fill="white"/>
</g>
</svg>
