<svg width="41" height="41" viewBox="0 0 41 41" fill="none" xmlns="http://www.w3.org/2000/svg">
<path d="M20.9364 2.75589L20.5 1.97588L20.0636 2.75589L17.1439 7.97496L12.0058 4.91497L11.2379 4.45765L11.25 5.35133L11.331 11.331L5.35133 11.25L4.45765 11.2379L4.91497 12.0058L7.97496 17.1439L2.75589 20.0636L1.97588 20.5L2.75589 20.9364L7.97496 23.8561L4.91497 28.9942L4.45765 29.7621L5.35133 29.75L11.331 29.669L11.25 35.6487L11.2379 36.5424L12.0058 36.085L17.1439 33.025L20.0636 38.2441L20.5 39.0241L20.9364 38.2441L23.8561 33.025L28.9942 36.085L29.7621 36.5424L29.75 35.6487L29.669 29.669L35.6487 29.75L36.5424 29.7621L36.085 28.9942L33.025 23.8561L38.2441 20.9364L39.0241 20.5L38.2441 20.0636L33.025 17.1439L36.085 12.0058L36.5424 11.2379L35.6487 11.25L29.669 11.331L29.75 5.35133L29.7621 4.45765L28.9942 4.91497L23.8561 7.97496L20.9364 2.75589Z" fill="#D5F033" stroke="black"/>
<path d="M22.1836 13.8594V28H19.2344V16.6523H19.1562L15.9141 18.6836V16.0859L19.4102 13.8594H22.1836Z" fill="#1D1B20"/>
</svg>
