<svg width="12" height="12" viewBox="0 0 12 12" fill="none" xmlns="http://www.w3.org/2000/svg">
<path d="M8.916 6.548V5.792H6.408C5.832 6.26 4.98 6.464 3.972 6.464C2.04 6.464 0.648 5.732 0.648 3.824V3.416C0.648 1.508 2.04 0.775999 3.972 0.775999C5.124 0.775999 6.06 1.04 6.624 1.652H8.928C9 0.991999 9.504 0.644 10.092 0.644C10.704 0.644 11.292 1.052 11.292 1.808V6.548H8.916ZM8.664 8.264H1.896C1.44 8.264 1.248 7.916 1.248 7.568C1.248 7.232 1.452 6.872 1.896 6.872H9.852C10.908 6.872 11.292 7.184 11.292 8.12V10.016H3.912C3.732 10.016 3.648 10.124 3.648 10.244V10.28C3.648 10.4 3.732 10.508 3.912 10.508H10.932C11.4 10.508 11.604 10.868 11.604 11.228C11.604 11.552 11.412 11.912 10.932 11.912H2.796C1.716 11.912 1.116 11.156 1.116 10.304V10.16C1.116 9.308 1.716 8.756 2.796 8.756H8.856V8.456C8.856 8.312 8.82 8.264 8.664 8.264ZM2.976 3.332V3.908C2.976 4.508 3.384 4.772 3.972 4.772C4.56 4.772 4.968 4.508 4.968 3.908V3.332C4.968 2.744 4.56 2.468 3.972 2.468C3.384 2.468 2.976 2.744 2.976 3.332ZM7.236 3.824C7.236 3.932 7.224 4.028 7.224 4.124H8.916V3.32H7.236V3.824Z" fill="#6138F8"/>
</svg>