<svg width="25" height="12" viewBox="0 0 25 12" fill="none" xmlns="http://www.w3.org/2000/svg">
<path d="M4.02 0.607999C4.776 0.607999 5.256 1.052 5.256 1.82V1.928H6.936C7.524 1.928 7.836 2.36 7.836 2.864C7.836 3.368 7.512 3.8 6.936 3.8H6.912C7.044 4.112 7.128 4.46 7.128 4.868V8.6C7.128 10.712 5.784 11.684 4.02 11.684C2.268 11.684 0.924 10.712 0.924 8.6V4.868C0.924 4.46 0.996 4.112 1.128 3.8C0.552 3.8 0.228 3.368 0.228 2.864C0.228 2.36 0.528 1.928 1.116 1.928H2.784V1.82C2.784 1.052 3.264 0.607999 4.02 0.607999ZM8.568 11.912V1.808C8.568 1.04 9.132 0.644 9.756 0.644C10.368 0.644 10.944 1.052 10.944 1.808V4.844H11.34C12.072 4.844 12.288 5.408 12.288 5.888C12.288 6.38 12.06 6.932 11.34 6.932H10.944V11.912H8.568ZM4.02 9.74C4.488 9.74 4.896 9.392 4.896 8.624V4.772C4.896 3.992 4.5 3.704 4.02 3.704C3.552 3.704 3.156 3.992 3.156 4.772V8.624C3.156 9.392 3.564 9.74 4.02 9.74ZM15.48 9.284H18.972C19.668 9.284 19.872 9.836 19.872 10.292C19.872 10.76 19.656 11.312 18.972 11.312H14.592C13.152 11.312 12.768 10.832 12.768 9.452V2.264C12.768 1.46 13.32 1.124 13.968 1.124C14.628 1.124 15.144 1.472 15.144 2.264V8.96C15.144 9.236 15.204 9.284 15.48 9.284ZM20.568 11.912V1.808C20.568 1.04 21.132 0.644 21.756 0.644C22.368 0.644 22.944 1.052 22.944 1.808V4.844H23.34C24.072 4.844 24.288 5.408 24.288 5.888C24.288 6.38 24.06 6.932 23.34 6.932H22.944V11.912H20.568Z" fill="#6138F8"/>
</svg>