<svg width="12" height="12" viewBox="0 0 12 12" fill="none" xmlns="http://www.w3.org/2000/svg">
<path d="M10.812 11.912H2.232C1.2 11.912 0.72 11.192 0.72 10.376V10.34C0.72 9.5 1.188 8.912 2.232 8.912H8.652V8.696C8.652 8.588 8.58 8.504 8.4 8.504H1.524C1.08 8.504 0.84 8.156 0.84 7.844C0.84 7.532 1.044 7.172 1.524 7.172H4.788V6.644H1.248C0.624 6.644 0.384 6.296 0.384 5.864C0.384 5.456 0.612 5.072 1.248 5.072H10.752C11.388 5.072 11.616 5.456 11.616 5.864C11.616 6.296 11.376 6.644 10.752 6.644H7.212V7.172H9.78C10.8 7.172 11.124 7.556 11.124 8.288V10.148H3.528C3.348 10.148 3.3 10.232 3.3 10.352C3.3 10.484 3.348 10.568 3.528 10.568H10.812C11.28 10.568 11.46 10.904 11.46 11.24C11.46 11.528 11.292 11.912 10.812 11.912ZM10.272 2.42H3.528C3.324 2.42 3.288 2.468 3.288 2.636V2.78C3.288 2.984 3.324 3.008 3.528 3.008H10.308C10.92 3.008 11.148 3.404 11.148 3.812C11.148 4.22 10.908 4.568 10.308 4.568H2.46C1.188 4.568 0.876 4.256 0.876 3.044V2.36C0.876 1.148 1.188 0.812 2.46 0.812H10.272C10.896 0.812 11.112 1.208 11.112 1.616C11.112 2.048 10.884 2.42 10.272 2.42Z" fill="#6138F8"/>
</svg>