<svg width="12" height="13" viewBox="0 0 12 13" fill="none" xmlns="http://www.w3.org/2000/svg">
<path d="M7.572 8.516C7.572 8.552 7.56 8.576 7.56 8.612C9.42 8.552 11.52 9.476 11.856 11.912H9.396C9.108 10.868 7.968 10.22 6.648 10.376C5.46 11.504 3.384 12.176 1.944 12.02C1.368 11.96 0.924 11.528 0.96 10.916C0.996 10.328 1.44 10.016 1.992 10.028C3.072 10.052 4.644 9.512 5.124 8.432C5.46 7.676 5.868 7.424 6.492 7.46C7.116 7.496 7.584 7.796 7.572 8.516ZM0.984 5.372C1.812 5.048 2.244 4.136 2.244 2.456V1.976C2.244 1.208 2.712 0.86 3.324 0.86C3.936 0.86 4.464 1.208 4.464 1.976V2.456C4.464 2.828 4.44 3.188 4.404 3.512C5.808 3.824 6.552 4.916 6.372 7.04H4.236C4.38 6.308 4.272 5.72 3.9 5.396C3.396 6.476 2.568 7.1 1.56 7.232C0.96 7.316 0.468 7.004 0.384 6.5C0.288 5.948 0.492 5.564 0.984 5.372ZM6.804 7.256V4.028H6.24C5.652 4.028 5.364 3.56 5.364 3.056C5.364 2.552 5.604 2.084 6.24 2.084H6.804V1.664C6.804 0.991999 7.272 0.644 7.824 0.644C8.364 0.644 8.856 1.004 8.856 1.664V7.256H6.804ZM9.372 7.736V1.664C9.372 0.991999 9.876 0.644 10.428 0.644C10.968 0.644 11.484 1.004 11.484 1.664V7.736H9.372Z" fill="#6138F8"/>
</svg>