<svg width="24" height="13" viewBox="0 0 24 13" fill="none" xmlns="http://www.w3.org/2000/svg">
<path d="M6.972 11.432H2.604C1.044 11.432 0.756 11.06 0.756 9.56V2.924C0.756 1.424 1.044 1.064 2.604 1.064H6.42C7.116 1.064 7.32 1.616 7.32 2.072C7.32 2.54 7.104 3.092 6.42 3.092H3.432C3.216 3.092 3.12 3.164 3.12 3.44V9.08C3.12 9.356 3.216 9.428 3.432 9.428H6.972C7.668 9.428 7.872 9.98 7.872 10.436C7.872 10.904 7.656 11.432 6.972 11.432ZM8.568 11.912V1.808C8.568 1.04 9.132 0.644 9.756 0.644C10.368 0.644 10.944 1.052 10.944 1.808V4.844H11.34C12.072 4.844 12.288 5.408 12.288 5.888C12.288 6.38 12.06 6.932 11.34 6.932H10.944V11.912H8.568ZM19.452 8.396C19.452 8.444 19.452 8.504 19.44 8.552C21.288 8.492 23.316 9.416 23.676 11.912H21.216C20.88 10.808 19.848 10.16 18.552 10.316C17.424 11.456 15.456 12.152 13.992 12.008C13.416 11.948 12.96 11.492 12.984 10.928C13.008 10.388 13.404 10.016 13.872 10.004C14.016 10.004 14.22 9.992 14.364 9.968C15.48 9.824 16.596 9.296 17.004 8.312C17.316 7.556 17.736 7.292 18.372 7.34C19.008 7.376 19.464 7.676 19.452 8.396ZM12.96 5.108C14.184 4.748 14.832 3.8 14.832 2.036V1.88C14.832 1.112 15.432 0.752 16.068 0.763999C16.692 0.775999 17.22 1.16 17.22 1.88V2.036C17.22 2.456 17.184 2.84 17.124 3.212C18.78 3.404 19.908 4.52 19.824 6.86H17.52C17.592 5.804 17.232 5.156 16.488 5.012C15.804 6.212 14.712 6.896 13.608 7.028C12.984 7.1 12.492 6.74 12.396 6.32C12.24 5.78 12.48 5.252 12.96 5.108ZM20.904 7.928V4.1H19.896C19.308 4.1 18.96 3.608 18.96 3.104C18.96 2.6 19.26 2.108 19.896 2.108H20.904V1.808C20.904 1.04 21.468 0.644 22.092 0.644C22.704 0.644 23.292 1.052 23.292 1.808V7.928H20.904Z" fill="#6138F8"/>
</svg>