<svg width="24" height="13" viewBox="0 0 24 13" fill="none" xmlns="http://www.w3.org/2000/svg">
<path d="M11.292 11.912H8.928V9.056H7.212C6.996 10.808 5.736 11.684 3.996 11.684C2.064 11.684 0.696 10.616 0.696 8.468V4.052C0.696 1.904 2.064 0.835999 3.996 0.835999C5.628 0.835999 6.828 1.604 7.164 3.128H8.928V1.832C8.928 1.052 9.468 0.644 10.104 0.644C10.728 0.644 11.292 1.064 11.292 1.832V11.912ZM3.012 3.968V8.552C3.012 9.38 3.432 9.728 3.996 9.728C4.56 9.728 4.98 9.38 4.98 8.552V3.968C4.98 3.152 4.56 2.792 3.996 2.792C3.432 2.792 3.012 3.152 3.012 3.968ZM7.26 5.12V7.064H8.928V5.12H7.26ZM19.452 8.396C19.452 8.444 19.452 8.504 19.44 8.552C21.288 8.492 23.316 9.416 23.676 11.912H21.216C20.88 10.808 19.848 10.16 18.552 10.316C17.424 11.456 15.456 12.152 13.992 12.008C13.416 11.948 12.96 11.492 12.984 10.928C13.008 10.388 13.404 10.016 13.872 10.004C14.016 10.004 14.22 9.992 14.364 9.968C15.48 9.824 16.596 9.296 17.004 8.312C17.316 7.556 17.736 7.292 18.372 7.34C19.008 7.376 19.464 7.676 19.452 8.396ZM12.96 5.108C14.184 4.748 14.832 3.8 14.832 2.036V1.88C14.832 1.112 15.432 0.752 16.068 0.763999C16.692 0.775999 17.22 1.16 17.22 1.88V2.036C17.22 2.456 17.184 2.84 17.124 3.212C18.78 3.404 19.908 4.52 19.824 6.86H17.52C17.592 5.804 17.232 5.156 16.488 5.012C15.804 6.212 14.712 6.896 13.608 7.028C12.984 7.1 12.492 6.74 12.396 6.32C12.24 5.78 12.48 5.252 12.96 5.108ZM20.904 7.928V4.1H19.896C19.308 4.1 18.96 3.608 18.96 3.104C18.96 2.6 19.26 2.108 19.896 2.108H20.904V1.808C20.904 1.04 21.468 0.644 22.092 0.644C22.704 0.644 23.292 1.052 23.292 1.808V7.928H20.904Z" fill="#6138F8"/>
</svg>