<svg width="24" height="12" viewBox="0 0 24 12" fill="none" xmlns="http://www.w3.org/2000/svg">
<path d="M8.868 6.428V1.832C8.868 1.052 9.444 0.644 10.08 0.644C10.704 0.644 11.292 1.064 11.292 1.832V6.428H8.868ZM0.648 3.74V3.416C0.648 1.508 2.016 0.775999 4.068 0.775999C6.12 0.775999 7.488 1.508 7.488 3.416V3.74C7.488 5.648 6.12 6.38 4.068 6.38C2.016 6.38 0.648 5.648 0.648 3.74ZM3.012 3.332V3.824C3.012 4.424 3.432 4.688 4.068 4.688C4.704 4.688 5.124 4.424 5.124 3.824V3.332C5.124 2.744 4.704 2.468 4.068 2.468C3.432 2.468 3.012 2.744 3.012 3.332ZM10.92 11.912H2.82C1.728 11.912 1.116 11.144 1.116 10.28V10.136C1.116 9.272 1.728 8.72 2.82 8.72H8.856V8.408C8.856 8.264 8.82 8.216 8.664 8.216H1.908C1.44 8.216 1.248 7.868 1.248 7.508C1.248 7.172 1.452 6.812 1.908 6.812H9.828C10.896 6.812 11.292 7.124 11.292 8.072V9.992H3.912C3.732 9.992 3.648 10.1 3.648 10.22V10.256C3.648 10.376 3.732 10.484 3.912 10.484H10.92C11.4 10.484 11.604 10.856 11.604 11.216C11.604 11.552 11.412 11.912 10.92 11.912ZM14.148 7.304C14.688 7.304 15.216 7.556 15.312 8.156H20.676C20.76 7.532 21.276 7.304 21.864 7.304C22.476 7.304 23.076 7.58 23.076 8.348V11.912H14.64C13.188 11.912 12.924 11.48 12.924 10.088V8.348C12.924 7.568 13.512 7.304 14.148 7.304ZM13.392 5.048H15.984V4.448C15.984 3.668 16.572 3.416 17.208 3.416C17.832 3.416 18.432 3.68 18.432 4.448V5.048H22.608C23.34 5.048 23.616 5.504 23.616 5.984C23.616 6.476 23.328 6.932 22.608 6.932H13.392C12.672 6.932 12.384 6.476 12.384 5.984C12.384 5.504 12.66 5.048 13.392 5.048ZM20.28 2.72H13.92C13.14 2.72 12.816 2.312 12.816 1.76C12.816 1.244 13.128 0.812 13.92 0.812H21.36C22.524 0.812 22.968 1.304 22.968 2.168V2.612C22.968 3.5 22.836 4.208 22.692 4.628H20.34C20.484 4.208 20.58 3.74 20.58 3.14V2.984C20.58 2.828 20.496 2.72 20.28 2.72ZM15.708 10.328H20.664V9.656H15.336V9.956C15.336 10.196 15.42 10.328 15.708 10.328Z" fill="#6138F8"/>
</svg>