<svg width="24" height="12" viewBox="0 0 24 12" fill="none" xmlns="http://www.w3.org/2000/svg">
<path d="M11.292 11.912H8.928V9.056H7.212C6.996 10.808 5.736 11.684 3.996 11.684C2.064 11.684 0.696 10.616 0.696 8.468V4.052C0.696 1.904 2.064 0.835999 3.996 0.835999C5.628 0.835999 6.828 1.604 7.164 3.128H8.928V1.832C8.928 1.052 9.468 0.644 10.104 0.644C10.728 0.644 11.292 1.064 11.292 1.832V11.912ZM3.012 3.968V8.552C3.012 9.38 3.432 9.728 3.996 9.728C4.56 9.728 4.98 9.38 4.98 8.552V3.968C4.98 3.152 4.56 2.792 3.996 2.792C3.432 2.792 3.012 3.152 3.012 3.968ZM7.26 5.12V7.064H8.928V5.12H7.26ZM14.376 0.956H18.516C19.116 0.956 19.32 1.364 19.32 1.808C19.32 2.228 19.104 2.624 18.516 2.624H15.432C15.216 2.624 15.108 2.696 15.108 2.912V4.544C15.108 4.772 15.216 4.832 15.432 4.832H18.972C19.572 4.832 19.788 5.204 19.788 5.612C19.788 6.056 19.572 6.44 18.972 6.44H14.376C13.092 6.44 12.732 6.044 12.732 4.856V2.564C12.732 1.376 13.092 0.956 14.376 0.956ZM23.412 11.912H19.848C18.684 11.912 18.42 11.516 18.42 10.412V7.832C18.42 7.124 18.804 6.848 19.392 6.848C19.968 6.848 20.328 7.124 20.34 7.796H21.528C21.54 7.124 21.9 6.848 22.476 6.848C23.076 6.848 23.412 7.136 23.412 7.832V11.912ZM17.532 11.912H14.604C13.524 11.912 12.936 11.192 12.936 10.328V10.136C12.936 9.26 13.524 8.696 14.604 8.696H15.852V8.48C15.852 8.36 15.78 8.288 15.612 8.288H13.728C13.26 8.288 13.068 7.916 13.068 7.58C13.068 7.232 13.272 6.872 13.728 6.872H16.488C17.532 6.872 17.928 7.172 17.928 8.108V10.052H15.36C15.18 10.052 15.108 10.136 15.108 10.244V10.28C15.108 10.388 15.18 10.472 15.36 10.472H17.532C18 10.472 18.192 10.796 18.192 11.204C18.192 11.6 18.012 11.912 17.532 11.912ZM20.904 6.584V4.484H19.104C18.564 4.484 18.288 4.136 18.288 3.692C18.288 3.236 18.516 2.888 19.104 2.888H20.904V1.808C20.904 1.04 21.468 0.644 22.092 0.644C22.704 0.644 23.292 1.052 23.292 1.808V6.584H20.904ZM20.616 10.412H21.528V9.272H20.34V10.136C20.34 10.376 20.376 10.412 20.616 10.412Z" fill="#6138F8"/>
</svg>