<svg width="24" height="12" viewBox="0 0 24 12" fill="none" xmlns="http://www.w3.org/2000/svg">
<path d="M0.696 8.456V4.064C0.696 1.94 2.064 0.835999 4.032 0.835999C6 0.835999 7.356 1.94 7.356 4.064V8.456C7.356 10.58 6 11.684 4.032 11.684C2.064 11.684 0.696 10.58 0.696 8.456ZM8.568 11.912V1.808C8.568 1.04 9.132 0.644 9.756 0.644C10.368 0.644 10.944 1.052 10.944 1.808V4.844H11.34C12.072 4.844 12.288 5.408 12.288 5.888C12.288 6.38 12.06 6.932 11.34 6.932H10.944V11.912H8.568ZM3.048 4.004V8.516C3.048 9.332 3.456 9.716 4.032 9.716C4.608 9.716 5.016 9.332 5.016 8.516V4.004C5.016 3.2 4.608 2.804 4.032 2.804C3.456 2.804 3.048 3.2 3.048 4.004ZM20.304 5.432H19.212V5.864H22.752C23.388 5.864 23.616 6.26 23.616 6.668C23.616 7.1 23.376 7.484 22.752 7.484H13.248C12.624 7.484 12.384 7.1 12.384 6.668C12.384 6.26 12.612 5.864 13.248 5.864H16.788V5.432H15.684C13.92 5.432 13.164 4.64 13.164 3.452C13.164 3.332 13.188 3.212 13.236 3.092C12.78 3.02 12.516 2.684 12.516 2.264C12.516 1.796 12.84 1.46 13.404 1.46H16.704C16.776 0.788 17.268 0.451999 18 0.451999C18.72 0.451999 19.212 0.8 19.284 1.46H22.584C23.148 1.46 23.472 1.796 23.472 2.264C23.472 2.684 23.208 3.032 22.752 3.092C22.8 3.212 22.824 3.332 22.824 3.452C22.824 4.64 22.068 5.432 20.304 5.432ZM14.112 7.748C14.592 7.748 15.072 7.952 15.24 8.432H20.748C20.892 7.928 21.372 7.748 21.9 7.748C22.512 7.748 23.112 8.024 23.112 8.792V11.912H14.58C13.128 11.912 12.888 11.516 12.888 10.124V8.792C12.888 8.012 13.476 7.748 14.112 7.748ZM19.824 2.948H16.176C15.768 2.948 15.564 3.128 15.564 3.404C15.564 3.668 15.744 3.872 16.152 3.872H19.848C20.256 3.872 20.424 3.668 20.424 3.404C20.424 3.128 20.232 2.948 19.824 2.948ZM15.648 10.412H20.7V9.86H15.3V10.076C15.3 10.376 15.36 10.412 15.648 10.412Z" fill="#6138F8"/>
</svg>