<svg width="170" height="20" viewBox="0 0 170 20" fill="none" xmlns="http://www.w3.org/2000/svg">
<path d="M1.25453 15.66C1.25453 13.5 2.61453 11.74 5.39453 11.74H13.8545C16.5945 11.74 17.9945 13.46 17.9945 15.66C17.9945 17.86 16.5945 19.58 13.8545 19.58H5.39453C2.61453 19.58 1.25453 17.82 1.25453 15.66ZM3.45453 1.32H10.1945C11.2345 1.32 11.5945 2.16 11.5945 2.88C11.5945 3.56 11.2145 4.4 10.1945 4.4H5.11453C4.73453 4.4 4.55453 4.54 4.55453 4.88V7.1C4.55453 7.48 4.73453 7.6 5.11453 7.6H10.9545C11.9945 7.6 12.3745 8.42 12.3745 9.1C12.3745 9.82 11.9945 10.64 10.9545 10.64H3.45453C1.23453 10.64 0.614531 9.92 0.614531 7.86V4.1C0.614531 2.04 1.23453 1.32 3.45453 1.32ZM13.7145 11.26V2.72C13.7145 1.42 14.6345 0.739999 15.6945 0.739999C16.7345 0.739999 17.6745 1.44 17.6745 2.72V4.36H18.2945C19.5145 4.36 19.8745 5.28 19.8745 6.08C19.8745 6.9 19.4945 7.8 18.2945 7.8H17.6745V11.26H13.7145ZM5.31453 15.66C5.31453 16.16 5.57453 16.78 6.45453 16.78H12.7945C13.6745 16.78 13.9345 16.16 13.9345 15.66C13.9345 15.16 13.6745 14.54 12.7945 14.54H6.45453C5.57453 14.54 5.31453 15.16 5.31453 15.66ZM33.8945 19.58H25.3545C22.5745 19.58 21.2545 17.96 21.2545 15.8C21.2545 13.66 22.5745 11.98 25.3545 11.98H33.8945C36.6345 11.98 37.9945 13.62 37.9945 15.8C37.9945 18 36.6345 19.58 33.8945 19.58ZM30.9145 4.58H28.0945V4.96C28.0945 5.28 28.0745 5.6 28.0345 5.9C31.1145 6 32.5745 7.6 32.5145 11.12H28.7745C28.8945 9.56 28.1345 8.68 26.9345 8.76C25.7745 10.38 23.8745 11.26 22.0145 11.32C21.0345 11.36 20.2145 10.76 20.1745 9.86C20.1345 8.92 20.5945 8.34 21.3945 8.2C23.2145 7.9 24.2745 6.64 24.2745 4.96V4.58H21.7745C20.8345 4.58 20.3145 3.7 20.3145 2.98C20.3145 2.26 20.7545 1.36 21.7745 1.36H30.9145C31.9345 1.36 32.3745 2.26 32.3745 2.98C32.3745 3.7 31.8545 4.58 30.9145 4.58ZM33.7145 11.38V2.72C33.7145 1.42 34.6345 0.739999 35.6945 0.739999C36.7345 0.739999 37.6745 1.44 37.6745 2.72V4.28H38.2945C39.5145 4.28 39.8745 5.2 39.8745 6C39.8745 6.82 39.4945 7.72 38.2945 7.72H37.6745V11.38H33.7145ZM26.4145 16.8H32.8345C33.7145 16.8 33.9345 16.24 33.9345 15.8C33.9345 15.36 33.7145 14.84 32.8345 14.84H26.4145C25.5345 14.84 25.3145 15.36 25.3145 15.8C25.3145 16.24 25.5345 16.8 26.4145 16.8ZM56.86 2.54C56.84 2.72 56.82 2.88 56.78 3.04C59.96 3.1 62.7 4.64 63.8 8.6H59.76C58.8 6.74 57 5.8 54.9 6.02C53.08 7.64 50.3 8.7 47.86 8.66C46.68 8.64 46.1 7.82 46.12 7.02C46.14 6.2 46.76 5.4 47.96 5.36C49.94 5.28 52.32 3.84 52.78 2.2C53.12 1 54.06 0.479999 55.14 0.579999C56.2 0.679999 56.96 1.24 56.86 2.54ZM47.2 9.96H53.08V9.06C53.08 7.76 54.04 7.28 55.1 7.28C56.14 7.28 57.12 7.78 57.12 9.06V9.96H62.8C63.94 9.96 64.36 10.8 64.36 11.54C64.36 12.3 63.92 13.1 62.8 13.1H47.2C46.08 13.1 45.64 12.3 45.64 11.54C45.64 10.8 46.06 9.96 47.2 9.96ZM49.5 19.52C47.24 19.52 46.64 18.78 46.64 16.62V15.56C46.64 14.2 47.6 13.68 48.72 13.68C49.84 13.68 50.74 14.22 50.74 15.56V16.06C50.74 16.4 50.8 16.46 51.18 16.46H62.06C63.28 16.46 63.74 17.18 63.74 17.98C63.74 18.8 63.26 19.52 62.06 19.52H49.5ZM77.46 11.46H69.08C66.66 11.46 66.22 10.74 66.22 8.42V4.42C66.22 2.1 66.66 1.38 69.08 1.38H74.6C77.02 1.38 77.46 2.1 77.46 4.42V11.46ZM82.66 19.52H70.04C67.8 19.52 67.2 18.74 67.2 16.6V14.56C67.2 13.2 68.14 12.58 69.26 12.58C70.38 12.58 71.26 13.22 71.26 14.56V15.92C71.26 16.36 71.36 16.42 71.8 16.42H82.66C83.88 16.42 84.34 17.16 84.34 17.96C84.34 18.78 83.86 19.52 82.66 19.52ZM79.78 14.88V2.72C79.78 1.42 80.74 0.739999 81.8 0.739999C82.84 0.739999 83.82 1.44 83.82 2.72V14.88H79.78ZM70.02 8C70.02 8.42 70.1 8.52 70.5 8.52H73.66V4.82C73.66 4.44 73.56 4.32 73.16 4.32H70.5C70.1 4.32 70.02 4.44 70.02 4.82V8ZM96.96 2.94C96.94 3.36 96.88 3.74 96.8 4.14C100.22 4.18 103.62 6.38 103.96 11.26H99.92C99.52 8.78 97.7 7.28 95.36 7.34C93.56 9.76 90.56 11.32 87.82 11.32C86.84 11.32 86.04 10.74 85.96 9.76C85.88 8.8 86.42 8.02 87.44 7.84C90.06 7.38 92.44 5.5 92.86 2.62C93.04 1.36 93.98 0.739999 95.1 0.819999C96.26 0.919999 97 1.68 96.96 2.94ZM102.68 15.34H97.04V19.62H92.96V15.34H87.32C86.12 15.34 85.64 14.54 85.64 13.72C85.64 12.92 86.1 12.08 87.32 12.08H102.68C103.9 12.08 104.36 12.92 104.36 13.72C104.36 14.54 103.88 15.34 102.68 15.34ZM129.525 19.52H115.445C113.205 19.52 112.605 18.74 112.605 16.6V13.42C112.605 12.06 113.505 11.5 114.625 11.5C115.645 11.5 116.445 12 116.585 13.1H125.545C125.665 11.98 126.505 11.5 127.545 11.5C128.665 11.5 129.525 12.08 129.525 13.42V19.52ZM112.265 7.64C114.305 7.14 115.385 5.68 115.385 2.92V2.8C115.385 1.52 116.405 0.919999 117.465 0.939999C118.505 0.959999 119.425 1.6 119.425 2.8V2.92C119.425 3.46 119.385 3.96 119.305 4.44C122.165 4.74 124.085 6.64 123.925 10.62H120.025C120.145 8.86 119.565 7.7 118.345 7.46C117.185 9.54 115.245 10.72 113.305 10.86C112.265 10.94 111.445 10.34 111.305 9.64C111.045 8.74 111.465 7.84 112.265 7.64ZM125.385 10.88V2.72C125.385 1.42 126.345 0.739999 127.405 0.739999C128.445 0.739999 129.425 1.44 129.425 2.72V10.88H125.385ZM117.145 16.86H125.525V15.66H116.605V16.36C116.605 16.8 116.705 16.86 117.145 16.86ZM132.725 15.6C135.045 15.26 136.565 14.2 136.565 10.04V5.36C136.565 4.98 136.405 4.86 136.065 4.86H133.085C131.885 4.86 131.405 4 131.405 3.18C131.405 2.38 131.865 1.5 133.085 1.5H137.225C139.485 1.5 140.205 2.18 140.205 4.22V5H141.785V2.44C141.785 1.32 142.565 0.739999 143.485 0.739999C144.385 0.739999 145.245 1.34 145.245 2.44V19.52H141.785V14.8H140.465C140.065 14.8 139.745 14.72 139.485 14.56C138.345 17.56 135.945 18.7 133.265 18.9C132.205 18.98 131.245 18.48 131.205 17.38C131.165 16.44 131.645 15.76 132.725 15.6ZM146.225 19.52V2.44C146.225 1.32 147.065 0.739999 147.985 0.739999C148.885 0.739999 149.745 1.34 149.745 2.44V19.52H146.225ZM140.205 10.08C140.205 10.58 140.185 11.06 140.145 11.5C140.245 11.5 140.345 11.48 140.465 11.48H141.785V8.32H140.205V10.08ZM165.465 11.36V9.78H162.585V10.86H154.685C152.265 10.86 151.825 10.14 151.825 7.82V4.32C151.825 2 152.265 1.28 154.685 1.28H159.725C161.525 1.28 162.225 1.68 162.465 2.84H165.465V2.68C165.465 1.4 166.385 0.739999 167.425 0.739999C168.445 0.739999 169.425 1.42 169.425 2.68V11.36H165.465ZM165.525 19.52H156.565C153.785 19.52 152.465 17.94 152.465 15.78C152.465 13.64 153.785 12 156.565 12H165.525C168.265 12 169.625 13.6 169.625 15.78C169.625 17.98 168.265 19.52 165.525 19.52ZM157.625 16.72H164.465C165.345 16.72 165.565 16.22 165.565 15.78C165.565 15.34 165.345 14.88 164.465 14.88H157.625C156.745 14.88 156.525 15.34 156.525 15.78C156.525 16.22 156.745 16.72 157.625 16.72ZM155.545 7.44C155.545 7.86 155.625 7.96 156.025 7.96H158.945V4.68C158.945 4.3 158.845 4.18 158.445 4.18H156.025C155.625 4.18 155.545 4.3 155.545 4.68V7.44ZM162.585 5.62V7H165.465V5.62H162.585Z" fill="white"/>
</svg>
