<svg xmlns="http://www.w3.org/2000/svg" width="227" height="65" viewBox="0 0 227 65" fill="none">
<path fill-rule="evenodd" clip-rule="evenodd" d="M64.3171 56.2524C61.7206 53.8265 57.2794 53.8265 54.6829 56.2524C48.8751 61.6788 41.0754 65 32.5 65C14.5507 65 0 50.4493 0 32.5C0 14.5507 14.5507 0 32.5 0C41.0754 0 48.8751 3.32124 54.6829 8.74757C57.2794 11.1735 61.7206 11.1735 64.3171 8.74757C70.1249 3.32124 77.9246 0 86.5 0C95.0754 0 102.875 3.32124 108.683 8.74757C111.279 11.1735 115.721 11.1735 118.317 8.74757C124.125 3.32124 131.925 0 140.5 0C149.075 0 156.875 3.32123 162.683 8.74756C165.279 11.1735 169.721 11.1735 172.317 8.74756C178.125 3.32123 185.925 0 194.5 0C212.449 0 227 14.5507 227 32.5C227 50.4493 212.449 65 194.5 65C185.925 65 178.125 61.6788 172.317 56.2524C169.721 53.8265 165.279 53.8265 162.683 56.2524C156.875 61.6788 149.075 65 140.5 65C131.925 65 124.125 61.6788 118.317 56.2524C115.721 53.8265 111.279 53.8265 108.683 56.2524C102.875 61.6788 95.0754 65 86.5 65C77.9246 65 70.1249 61.6788 64.3171 56.2524Z" fill="#6138F8"/>
</svg>