<svg width="105" height="20" viewBox="0 0 105 20" fill="none" xmlns="http://www.w3.org/2000/svg">
<path d="M1.05727 15.66C1.05727 13.5 2.41727 11.74 5.19727 11.74H13.6573C16.3973 11.74 17.7973 13.46 17.7973 15.66C17.7973 17.86 16.3973 19.58 13.6573 19.58H5.19727C2.41727 19.58 1.05727 17.82 1.05727 15.66ZM3.25727 1.32H9.99727C11.0373 1.32 11.3973 2.16 11.3973 2.88C11.3973 3.56 11.0173 4.4 9.99727 4.4H4.91727C4.53727 4.4 4.35727 4.54 4.35727 4.88V7.1C4.35727 7.48 4.53727 7.6 4.91727 7.6H10.7573C11.7973 7.6 12.1773 8.42 12.1773 9.1C12.1773 9.82 11.7973 10.64 10.7573 10.64H3.25727C1.03727 10.64 0.417266 9.92 0.417266 7.86V4.1C0.417266 2.04 1.03727 1.32 3.25727 1.32ZM13.5173 11.26V2.72C13.5173 1.42 14.4373 0.739999 15.4973 0.739999C16.5373 0.739999 17.4773 1.44 17.4773 2.72V4.36H18.0973C19.3173 4.36 19.6773 5.28 19.6773 6.08C19.6773 6.9 19.2973 7.8 18.0973 7.8H17.4773V11.26H13.5173ZM5.11727 15.66C5.11727 16.16 5.37727 16.78 6.25727 16.78H12.5973C13.4773 16.78 13.7373 16.16 13.7373 15.66C13.7373 15.16 13.4773 14.54 12.5973 14.54H6.25727C5.37727 14.54 5.11727 15.16 5.11727 15.66ZM33.6973 19.58H25.1573C22.3773 19.58 21.0573 17.96 21.0573 15.8C21.0573 13.66 22.3773 11.98 25.1573 11.98H33.6973C36.4373 11.98 37.7973 13.62 37.7973 15.8C37.7973 18 36.4373 19.58 33.6973 19.58ZM30.7173 4.58H27.8973V4.96C27.8973 5.28 27.8773 5.6 27.8373 5.9C30.9173 6 32.3773 7.6 32.3173 11.12H28.5773C28.6973 9.56 27.9373 8.68 26.7373 8.76C25.5773 10.38 23.6773 11.26 21.8173 11.32C20.8373 11.36 20.0173 10.76 19.9773 9.86C19.9373 8.92 20.3973 8.34 21.1973 8.2C23.0173 7.9 24.0773 6.64 24.0773 4.96V4.58H21.5773C20.6373 4.58 20.1173 3.7 20.1173 2.98C20.1173 2.26 20.5573 1.36 21.5773 1.36H30.7173C31.7373 1.36 32.1773 2.26 32.1773 2.98C32.1773 3.7 31.6573 4.58 30.7173 4.58ZM33.5173 11.38V2.72C33.5173 1.42 34.4373 0.739999 35.4973 0.739999C36.5373 0.739999 37.4773 1.44 37.4773 2.72V4.28H38.0973C39.3173 4.28 39.6773 5.2 39.6773 6C39.6773 6.82 39.2973 7.72 38.0973 7.72H37.4773V11.38H33.5173ZM26.2173 16.8H32.6373C33.5173 16.8 33.7373 16.24 33.7373 15.8C33.7373 15.36 33.5173 14.84 32.6373 14.84H26.2173C25.3373 14.84 25.1173 15.36 25.1173 15.8C25.1173 16.24 25.3373 16.8 26.2173 16.8ZM56.6627 2.54C56.6427 2.72 56.6227 2.88 56.5827 3.04C59.7627 3.1 62.5027 4.64 63.6027 8.6H59.5627C58.6027 6.74 56.8027 5.8 54.7027 6.02C52.8827 7.64 50.1027 8.7 47.6627 8.66C46.4827 8.64 45.9027 7.82 45.9227 7.02C45.9427 6.2 46.5627 5.4 47.7627 5.36C49.7427 5.28 52.1227 3.84 52.5827 2.2C52.9227 1 53.8627 0.479999 54.9427 0.579999C56.0027 0.679999 56.7627 1.24 56.6627 2.54ZM47.0027 9.96H52.8827V9.06C52.8827 7.76 53.8427 7.28 54.9027 7.28C55.9427 7.28 56.9227 7.78 56.9227 9.06V9.96H62.6027C63.7427 9.96 64.1627 10.8 64.1627 11.54C64.1627 12.3 63.7227 13.1 62.6027 13.1H47.0027C45.8827 13.1 45.4427 12.3 45.4427 11.54C45.4427 10.8 45.8627 9.96 47.0027 9.96ZM49.3027 19.52C47.0427 19.52 46.4427 18.78 46.4427 16.62V15.56C46.4427 14.2 47.4027 13.68 48.5227 13.68C49.6427 13.68 50.5427 14.22 50.5427 15.56V16.06C50.5427 16.4 50.6027 16.46 50.9827 16.46H61.8627C63.0827 16.46 63.5427 17.18 63.5427 17.98C63.5427 18.8 63.0627 19.52 61.8627 19.52H49.3027ZM77.2627 11.46H68.8827C66.4627 11.46 66.0227 10.74 66.0227 8.42V4.42C66.0227 2.1 66.4627 1.38 68.8827 1.38H74.4027C76.8227 1.38 77.2627 2.1 77.2627 4.42V11.46ZM82.4627 19.52H69.8427C67.6027 19.52 67.0027 18.74 67.0027 16.6V14.56C67.0027 13.2 67.9427 12.58 69.0627 12.58C70.1827 12.58 71.0627 13.22 71.0627 14.56V15.92C71.0627 16.36 71.1627 16.42 71.6027 16.42H82.4627C83.6827 16.42 84.1427 17.16 84.1427 17.96C84.1427 18.78 83.6627 19.52 82.4627 19.52ZM79.5827 14.88V2.72C79.5827 1.42 80.5427 0.739999 81.6027 0.739999C82.6427 0.739999 83.6227 1.44 83.6227 2.72V14.88H79.5827ZM69.8227 8C69.8227 8.42 69.9027 8.52 70.3027 8.52H73.4627V4.82C73.4627 4.44 73.3627 4.32 72.9627 4.32H70.3027C69.9027 4.32 69.8227 4.44 69.8227 4.82V8ZM96.7627 2.94C96.7427 3.36 96.6827 3.74 96.6027 4.14C100.023 4.18 103.423 6.38 103.763 11.26H99.7227C99.3227 8.78 97.5027 7.28 95.1627 7.34C93.3627 9.76 90.3627 11.32 87.6227 11.32C86.6427 11.32 85.8427 10.74 85.7627 9.76C85.6827 8.8 86.2227 8.02 87.2427 7.84C89.8627 7.38 92.2427 5.5 92.6627 2.62C92.8427 1.36 93.7827 0.739999 94.9027 0.819999C96.0627 0.919999 96.8027 1.68 96.7627 2.94ZM102.483 15.34H96.8427V19.62H92.7627V15.34H87.1227C85.9227 15.34 85.4427 14.54 85.4427 13.72C85.4427 12.92 85.9027 12.08 87.1227 12.08H102.483C103.703 12.08 104.163 12.92 104.163 13.72C104.163 14.54 103.683 15.34 102.483 15.34Z" fill="#1D1B20" fill-opacity="0.5"/>
</svg>